<svg width="42" height="42" viewBox="0 0 42 42" fill="none" xmlns="http://www.w3.org/2000/svg">
<g clip-path="url(#clip0)">
<path d="M9.7998 18.9V38.5C9.80212 40.432 11.3678 41.9977 13.2998 42H28.6998C30.6318 41.9977 32.1975 40.432 32.1998 38.5V18.9C32.1955 17.4331 31.2757 16.125 29.8968 15.6247C30.4751 14.9882 30.7968 14.1599 30.7998 13.3V9.1C30.794 4.07661 26.7232 0.00578621 21.6998 0H20.2998C15.2764 0.00578621 11.2056 4.07661 11.1998 9.1V13.3C11.2028 14.1599 11.5245 14.9882 12.1028 15.6247C10.7239 16.125 9.80409 17.4331 9.7998 18.9ZM26.5998 11.9H15.3998L15.3998 11.2238C15.3979 10.6516 15.7472 10.1369 16.2797 9.9274L17.5033 9.4374C18.3059 9.11425 18.9153 8.44003 19.156 7.609L19.8882 5.0491C20.0313 4.55405 20.4845 4.21329 20.9998 4.21329C21.5151 4.21329 21.9683 4.55405 22.1114 5.0491L22.8436 7.6097C23.0843 8.44073 23.6937 9.11495 24.4963 9.4381L25.7206 9.9281C26.2524 10.1379 26.6014 10.6521 26.5998 11.2238L26.5998 11.9ZM29.3998 13.3C29.3998 14.4598 28.4596 15.4 27.2998 15.4H14.6998C13.54 15.4 12.5998 14.4598 12.5998 13.3H29.3998ZM12.5998 9.1C12.6048 4.84949 16.0493 1.40501 20.2998 1.4H21.6998C25.9503 1.40501 29.3948 4.84949 29.3998 9.1V11.9H27.9998V11.2238C28.0033 10.0783 27.3046 9.0477 26.2393 8.6268L25.0157 8.1368C24.6155 7.97602 24.3111 7.64065 24.1897 7.2268L23.4575 4.6641C23.1427 3.5681 22.1401 2.81302 20.9998 2.81302C19.8595 2.81302 18.857 3.5681 18.5421 4.6641L17.8099 7.224C17.6885 7.63785 17.3841 7.97322 16.9839 8.134L15.7603 8.624C14.694 9.04528 13.9952 10.0773 13.9998 11.2238V11.9H12.5998V9.1ZM11.1998 18.9C11.1998 17.7402 12.14 16.8 13.2998 16.8H28.6998C29.8596 16.8 30.7998 17.7402 30.7998 18.9V38.5C30.7998 39.6598 29.8596 40.6 28.6998 40.6H13.2998C12.14 40.6 11.1998 39.6598 11.1998 38.5V18.9Z" fill="#003399"/>
<path d="M14 22.4H15.4C15.7866 22.4 16.1 22.0866 16.1 21.7C16.1 21.3134 15.7866 21 15.4 21H14C13.6134 21 13.3 21.3134 13.3 21.7C13.3 22.0866 13.6134 22.4 14 22.4Z" fill="#003399"/>
<path d="M14 25.9H15.4C15.7866 25.9 16.1 25.5866 16.1 25.2C16.1 24.8134 15.7866 24.5 15.4 24.5H14C13.6134 24.5 13.3 24.8134 13.3 25.2C13.3 25.5866 13.6134 25.9 14 25.9Z" fill="#003399"/>
<path d="M15.4 31.5H14C13.6134 31.5 13.3 31.8134 13.3 32.2C13.3 32.5866 13.6134 32.9 14 32.9H15.4C15.7866 32.9 16.1 32.5866 16.1 32.2C16.1 31.8134 15.7866 31.5 15.4 31.5Z" fill="#003399"/>
<path d="M15.4 34.9999H14C13.6134 34.9999 13.3 35.3133 13.3 35.6999C13.3 36.0865 13.6134 36.3999 14 36.3999H15.4C15.7866 36.3999 16.1 36.0865 16.1 35.6999C16.1 35.3133 15.7866 34.9999 15.4 34.9999Z" fill="#003399"/>
<path d="M13.2998 29.4H17.4998C17.8864 29.4 18.1998 29.0866 18.1998 28.7C18.1998 28.3134 17.8864 28 17.4998 28H13.2998C12.9132 28 12.5998 28.3134 12.5998 28.7C12.5998 29.0866 12.9132 29.4 13.2998 29.4Z" fill="#003399"/>
<path d="M22.9445 32.4408C23.2847 32.7446 23.6445 33.0673 24.0267 33.4159C24.2944 33.6615 24.7054 33.6615 24.9731 33.4159C25.3532 33.0659 25.7151 32.7446 26.0553 32.4408C27.9999 30.7076 29.3999 29.4553 29.3999 27.6108C29.4476 26.8254 29.1779 26.0537 28.6515 25.4688C28.1251 24.884 27.386 24.535 26.5999 24.5C25.8045 24.5015 25.0449 24.8307 24.4999 25.41C23.9549 24.8307 23.1953 24.5015 22.3999 24.5C21.6138 24.535 20.8746 24.884 20.3482 25.4688C19.8218 26.0537 19.5522 26.8254 19.5999 27.6108C19.5999 29.4553 20.9999 30.7076 22.9445 32.4408ZM22.3999 25.9C23.0311 25.9415 23.5918 26.3174 23.8699 26.8856C23.9861 27.1282 24.2309 27.2827 24.4999 27.2832C24.7687 27.2828 25.0135 27.1286 25.1299 26.8863C25.4082 26.3183 25.9687 25.9422 26.5999 25.9C27.0132 25.9392 27.3937 26.1421 27.6567 26.4634C27.9197 26.7847 28.0432 27.1979 27.9999 27.6108C27.9999 28.8281 26.917 29.7948 25.1229 31.3964C24.9227 31.5751 24.715 31.7618 24.4999 31.9564C24.2847 31.7632 24.0771 31.5765 23.8769 31.3964C22.0828 29.7948 20.9999 28.8281 20.9999 27.6108C20.9565 27.1979 21.0801 26.7847 21.3431 26.4634C21.606 26.1421 21.9865 25.9392 22.3999 25.9Z" fill="#003399"/>
</g>
<defs>
<clipPath id="clip0">
<rect width="42" height="42" fill="white"/>
</clipPath>
</defs>
</svg>
