<svg width="50" height="50" viewBox="0 0 50 50" fill="none" xmlns="http://www.w3.org/2000/svg">
<path fill-rule="evenodd" clip-rule="evenodd" d="M16.9465 39.7936C13.1345 35.9816 23.063 17.633 31.6101 31.7233C35.5466 38.2175 32.4714 41.6239 28.7839 40.5401C23.0307 38.8487 27.3437 38.2534 20.9813 40.4472C19.7989 40.8566 17.9058 40.7529 16.9465 39.7936ZM15.87 40.87C19.3438 44.3438 22.534 40.9742 24.7469 40.9744C26.9368 40.9746 30.1415 44.3541 33.6238 40.8718C35.6616 38.8339 35.3003 36.8349 34.7618 34.6864C33.2315 28.5835 25.7225 20.7939 19.9033 26.6131C16.4739 30.0425 11.5818 36.5818 15.87 40.87H15.87Z" fill="#003399"/>
<path fill-rule="evenodd" clip-rule="evenodd" d="M20.7088 11.8159C24.1483 17.5601 19.6862 22.5559 16.7897 17.7595C14.0311 13.1931 17.3612 6.22349 20.7088 11.8159ZM16.1366 19.618C22.0489 25.5304 26.8095 15.2256 20.7108 9.12682C16.2684 4.68447 10.8269 14.3084 16.1366 19.618Z" fill="#003399"/>
<path fill-rule="evenodd" clip-rule="evenodd" d="M33.0847 11.2785C33.7911 12.7255 33.8969 12.6105 33.759 14.2391C33.674 15.2259 33.4119 16.3806 33.0002 17.211C31.802 19.6377 29.4788 20.8428 28.1283 18.31C25.8529 14.0381 30.7931 6.57647 33.0847 11.2785ZM27.1669 19.888C32.6031 25.3241 38.5114 14.0141 33.6228 9.1255C29.0493 4.55202 22.9961 15.7171 27.1669 19.888Z" fill="#003399"/>
<path fill-rule="evenodd" clip-rule="evenodd" d="M38.467 26.3432C37.1606 27.6497 36.2289 27.4402 34.9684 27.6885C33.5121 25.349 34.4319 22.8417 35.7729 21.5008C37.0793 20.1944 38.011 20.4038 39.2715 20.1555C40.0031 21.3333 40.2125 21.8969 40.0171 23.1138C39.9022 23.8268 39.0512 25.7544 38.4647 26.3409L38.467 26.3432ZM33.3559 28.2243C37.6787 32.5471 44.5533 23.2798 40.6194 19.3459C36.7085 15.435 29.7878 24.6562 33.3559 28.2243Z" fill="#003399"/>
<path fill-rule="evenodd" clip-rule="evenodd" d="M14.5231 27.6868C12.929 27.3715 10.4171 27.3805 9.52873 23.3825C9.22955 22.0345 9.44112 21.4042 10.2185 20.1529C11.8126 20.4682 14.3246 20.4593 15.2129 24.4573C15.5121 25.8053 15.3005 26.4356 14.5231 27.6868ZM9.67864 27.1481C15.591 33.0605 20.2737 25.907 13.9817 19.615C9.87757 15.5109 4.61975 22.0892 9.67864 27.1481Z" fill="#003399"/>
</svg>
