<svg width="35" height="35" viewBox="0 0 35 35" fill="none" xmlns="http://www.w3.org/2000/svg">
<g clip-path="url(#clip0)">
<path fill-rule="evenodd" clip-rule="evenodd" d="M5.1044 1.09295V10.5721C3.73092 9.91321 2.05645 9.47849 0 9.47849V10.9371C1.38026 11.2588 3.74486 11.9177 5.1044 12.0307V16.4058C3.73092 15.7469 2.05645 15.3122 0 15.3122V16.7708C1.38026 17.0921 3.74486 17.7514 5.1044 17.8644V22.2395C3.73092 21.5802 2.05645 21.1459 0 21.1459V22.6038C1.38026 22.9255 3.74486 23.5847 5.1044 23.6974V33.9058C5.85556 34.4087 6.05032 34.9994 6.92729 34.9994H28.0727C30.695 34.9994 29.8956 30.1628 29.8956 26.6142C29.8956 25.512 29.4665 25.6058 28.4377 25.5206C28.4377 28.9686 29.1339 33.5411 27.3441 33.5411H7.6566C6.81654 33.5411 6.56302 33.2876 6.56302 32.4475V2.55195C6.56302 1.71189 6.81654 1.45836 7.6566 1.45836H27.3441C29.1599 1.45836 28.4377 7.13724 28.4377 10.5724C23.4486 10.1573 25.2836 7.76446 15.5287 11.5176C11.8117 12.9476 11.4723 12.1057 8.02163 11.3018C8.02163 13.1017 7.74061 13.8536 12.761 13.8536C16.2162 13.8536 20.091 10.5758 23.4878 11.1191C27.4911 11.7595 30.9658 13.8536 35.0004 13.8536V12.3957C33.6201 12.074 31.2555 11.4148 29.896 11.3021V1.09371C29.1448 0.590801 28.9501 0.00012207 28.0731 0.00012207H6.92767C6.08083 0.00012207 5.81789 0.598335 5.10478 1.09371L5.1044 1.09295Z" fill="#003399"/>
<path fill-rule="evenodd" clip-rule="evenodd" d="M8.02013 17.1351C8.02013 18.9351 7.73911 19.6873 12.7595 19.6873C16.2147 19.6873 20.0895 16.4096 23.4863 16.9524C27.4896 17.5928 30.9643 19.6873 34.9989 19.6873V18.2287C23.562 15.5646 25.0492 13.6875 15.5272 17.351C11.8102 18.781 11.4708 17.9387 8.02013 17.1348V17.1351Z" fill="#003399"/>
<path fill-rule="evenodd" clip-rule="evenodd" d="M8.02013 22.9685C8.02013 24.7684 7.73911 25.5207 12.7595 25.5207C15.3 25.5207 20.7329 22.6038 22.6033 22.6038C25.2994 22.6038 30.7903 25.5207 34.9992 25.5207V24.0621C23.5624 21.3976 25.0496 19.5205 15.5276 23.184C11.8106 24.6143 11.4712 23.772 8.02051 22.9681L8.02013 22.9685Z" fill="#003399"/>
</g>
<defs>
<clipPath id="clip0">
<rect width="35" height="35" fill="white"/>
</clipPath>
</defs>
</svg>
