<svg width="35" height="35" viewBox="0 0 35 35" fill="none" xmlns="http://www.w3.org/2000/svg">
<path fill-rule="evenodd" clip-rule="evenodd" d="M3.04132 19.0357C3.04132 6.59652 18.5325 -0.284817 27.6699 8.8521C36.8443 18.026 29.851 33.4794 17.4858 33.4794C9.74704 33.4794 3.04132 26.7735 3.04132 19.0357ZM1.52045 17.8952C1.52045 21.1614 1.42207 22.5676 2.90541 25.6325C3.93336 27.7558 4.58248 28.3866 5.70221 30.0585C3.77868 32.9302 2.34453 32.1533 2.28114 34.9997C5.12764 34.9363 4.35021 33.5022 7.22257 31.5788C12.449 34.3445 11.9236 34.9997 18.6263 34.9997C22.7 34.9997 25.0607 33.0012 27.7495 31.5788C28.6405 32.1756 29.1334 32.7487 29.924 33.5854C30.9266 34.6462 30.8222 34.9581 32.6909 34.9997C32.6275 32.1533 31.1934 32.9307 29.2699 30.0585C30.3262 28.4814 30.9981 27.7923 31.9404 25.8871C37.0745 15.5058 28.8352 3.07117 18.6268 3.07117H16.3463C8.98737 3.07117 1.52147 10.5362 1.52147 17.8952H1.52045Z" fill="#003399"/>
<path fill-rule="evenodd" clip-rule="evenodd" d="M1.52039 8.01255C1.86169 3.91265 4.13513 1.6449 8.36253 1.55058C7.48875 2.85585 2.89115 7.64642 1.52039 8.01255ZM3.05176e-05 7.2519C3.05176e-05 10.1211 0.272357 9.34014 0.760211 11.4329L11.4971 0.883745C8.23169 -0.0381615 5.19249 -1.03664 1.97478 2.38527C0.900178 3.52827 3.05176e-05 5.16265 3.05176e-05 7.25241V7.2519Z" fill="#003399"/>
<path fill-rule="evenodd" clip-rule="evenodd" d="M26.6079 1.55086C32.3729 1.67916 32.7366 4.94843 33.4501 8.01283C32.0737 7.64518 27.4553 2.81709 26.6079 1.55086ZM23.5672 0.790721L34.1169 11.527C34.9567 8.55035 36.0019 5.5823 32.9957 2.38555C29.7171 -1.10127 26.7007 0.061005 23.5667 0.790721H23.5672Z" fill="#003399"/>
<path fill-rule="evenodd" clip-rule="evenodd" d="M16.7257 18.2755H10.6432V19.7957H18.2461V7.63245H16.7257V18.2755Z" fill="#003399"/>
</svg>
