<svg version="1.0" xmlns="http://www.w3.org/2000/svg" width="50" height="50" viewBox="0 0 1006 1280"><path d="M248.7 1C193.4 5.3 147.3 24.2 101 61.3 64 91 29.6 138.2 12.4 182.8-5.3 228.6-4 279.1 16 320.5c8.4 17.6 17.7 30.4 33.4 46.1 19.3 19.2 36.7 30.7 60.8 40 35.4 13.7 60.9 13.4 116.8-1.5 33.2-8.9 45-10.5 58-7.7 21.1 4.5 33.1 16.2 70 68.6 6.7 9.6 27.2 37.4 45.4 61.8 18.2 24.3 33.2 44.9 33.4 45.7.5 2.1-139.5 182.4-142.1 183-1.2.3-5.8 1.2-10.2 2-14.5 2.9-21.7 7.8-29 20-5.1 8.5-7.3 16.5-9 33-.8 8-1.5 14.6-1.5 14.9 0 .2-2.4 1.2-5.2 2.1-2.9 1-6.9 2.7-8.9 4-3.7 2.4-10.9 12.2-10.9 14.9 0 .8 1.4 2.4 3 3.6 1.7 1.2 3 2.8 3 3.5 0 .8-5.8 8.8-12.8 17.7-7.1 9-19.5 25.5-27.7 36.8-18.1 24.8-30.8 41.3-65.4 85C52.7 1075.4 1 1142.7 1 1145.1c0 .6 2.4 5.4 5.4 10.8 2.9 5.3 9 16.7 13.5 25.3 4.6 8.8 8.9 15.9 9.9 16.2.9.3 7.3 1.7 14.2 3.1 6.9 1.5 17.2 4 23 5.6 5.8 1.6 10.8 2.9 11.2 2.9.4 0 2-2.4 3.4-5.3 4-7.8 9.4-15.5 22.9-32.1 6.7-8.3 14.1-18 16.5-21.6 2.4-3.6 4.4-6.6 4.6-6.8.1-.2 39.9 30.4 88.4 68 48.5 37.6 88.5 68.3 88.9 68.3.4 0 5.2-5.8 10.6-13 5.5-7.2 17.2-22.2 26-33.5 8.9-11.3 16.9-21.7 17.9-23.1l1.6-2.6-5.2-4c-2.9-2.2-18.3-14.4-34.3-27.2-15.9-12.8-31.4-24.9-34.4-26.9l-5.3-3.7-2.7 3.5c-1.4 1.9-5.9 7.5-9.9 12.5l-7.2 9 3.3 3c1.8 1.6 5.1 4.4 7.2 6.1l4 3.1-2.9 3.7c-1.6 2.2-3.4 3.5-4.2 3.2-.7-.3-1.7.1-2.1.9-.6 1.1-6.4-2.9-23.8-16.6-12.7-9.8-23.4-18.5-23.9-19.3-.7-1 0-2.6 2.3-5.5 1.8-2.2 3.7-4.1 4.3-4.1.5 0 5.2 3.4 10.5 7.5 5.2 4.1 9.8 7.5 10.3 7.5 1.3 0 19.5-23.9 19.5-25.7 0-1.1-4.4-5.1-10.9-10.1-8.8-6.6-63.4-49.7-73.6-57.9l-2.4-2 8.2-11.1c10.9-14.5 10.4-14.2 15.2-10.6 5.5 4.2 46.5 36.4 66.8 52.6 9.5 7.6 17.4 13.8 17.6 13.8.4 0 17-21.1 19-24.2l1.7-2.6-4.8-3.9c-2.7-2.1-7.2-5.6-10.1-7.8-5.1-3.9-6.6-6.5-3.7-6.5.8 0 1.5-.8 1.5-1.8 0-1.1.9-2.7 2-3.7 1.9-1.7 2.1-1.7 7.3 1.7 3 2 13.6 10.2 23.8 18.3 10.1 8.1 19.1 15 19.8 15.5 1.2.6.6 1.9-2.8 6.4-3.8 4.8-4.6 5.4-6 4.4-.9-.7-4-3.2-6.8-5.6-3-2.5-5.9-4.2-6.7-3.9-.8.3-3.4 3.2-5.8 6.4-2.3 3.2-6.4 8.4-9.1 11.6-2.6 3.2-4.5 6.3-4.1 6.8.7 1.3 20 16.7 46.9 37.6 12.1 9.4 23.6 18.7 25.4 20.7 1.9 2 4.2 3.6 5.2 3.6.9 0 3.5-2.7 5.8-6 2.4-3.3 17.5-23 33.7-43.7 16.2-20.7 29.4-38.2 29.4-38.9 0-2.9-29.6-27-93-75.7-23.4-18-48.8-37.5-56.5-43.5-7.6-5.9-16.4-13-19.5-15.9l-5.5-5.1 2.5-3.4c1.3-1.8 6.4-8.9 11.2-15.8 4.9-6.9 10.4-14.4 12.4-16.8l3.5-4.3 5.1 4.6c6.9 6.2 9.2 6.1 12.3-.7 3-6.6 6.4-19.4 7.2-27.1.3-3.3 1.1-6 1.7-6.2.6-.2 6.1-.9 12.2-1.7 25.2-3.3 34.7-12.5 39.9-38.5 3.9-19.5 5.2-22.1 19.1-37.8 3.4-3.9 11-13.8 17-22.1 22.5-31.2 85.9-117.3 86.4-117.3.3 0 2.7 3 5.5 6.7 19.5 26.3 73.5 99.7 80 108.7 7.5 10.5 19.4 25.7 27.6 35.5 5.1 6.1 6.5 9.7 8.9 23.6 5.1 28.9 16.6 39.4 46.1 42l7.6.7.7 6.8c.7 7.7 5.5 23.6 8.6 28.6 2.7 4.5 5.1 4.2 11.1-1.4l5.1-4.8 2.5 3c1.3 1.7 8.1 10.9 14.9 20.5l12.5 17.5-3.3 2.8c-9.2 7.9-29.8 24-62.8 49.2-45.4 34.6-63 48.4-84 66-24 20-25.5 21.5-24.2 23.5.6 1 11.3 14.8 23.8 30.6 24.2 30.7 36.3 46.6 40.4 52.7 1.4 2 3.1 3.7 3.9 3.7.8 0 2.9-1.5 4.7-3.4 1.9-1.9 13.4-11.2 25.6-20.7 29.8-23 43.9-34.3 46-36.6 1.7-1.8 1.3-2.4-7.8-14.1-5.2-6.7-9.9-12.2-10.4-12.2s-3.7 2.2-7.1 5c-3.4 2.7-6.7 5-7.4 5-.6 0-2.8-2.3-5-5.1-3.5-4.6-3.7-5.2-2.2-6.1 1-.5 8.2-5.9 16-12.1 23.5-18.4 31.9-24.7 32.8-24.7.6 0 1.9 1.6 3 3.5 1.2 1.9 2.5 3.5 3 3.5 2.8 0-.1 3.4-8.1 9.4-4.9 3.8-9.4 7.4-10 8-1 1.3 1.4 4.8 14.4 21.4 5.9 7.4 2.3 9 30-13.1 66.6-53.1 63-50.4 65.2-48.7 2.3 2 17.4 22.3 17.4 23.5 0 .5-5.1 4.8-11.2 9.5s-23.1 18-37.7 29.5c-14.6 11.6-29.2 23-32.4 25.4-3.1 2.4-5.7 4.8-5.7 5.5 0 1.6 18.7 25 20.2 25.4.7.1 5.5-3.1 10.7-7.3 5.2-4.1 9.7-7.5 10.2-7.5.9 0 8.4 8.9 7.8 9.4-.2.1-10.3 8-22.5 17.3-12.1 9.4-22.6 17.8-23.3 18.7-1.7 2-3.1 2.1-3.1.2 0-.9-.7-1.2-1.8-.9-1.3.3-2.7-.7-4.6-3.1-1.5-2-2.5-4-2.2-4.4.3-.5 3.5-3.1 7-5.8 3.6-2.7 6.6-5.2 6.6-5.6 0-.4-2.3-3.5-5.1-7-2.9-3.5-7.2-8.9-9.7-12.1-2.5-3.1-4.8-5.7-5.2-5.7-1 0-13.5 9.6-45 34.6-14.6 11.5-28.2 22.3-30.3 23.8-4.5 3.4-5.4 1.5 10.7 22 8.6 10.9 39.6 51.1 41.2 53.4.6.9 65.7-49.1 138.3-106.1 21.6-17 39.7-30.5 40.1-30 .4.4 3 4.3 5.8 8.5 2.9 4.2 9.4 12.8 14.6 19 12 14.5 19.7 25.3 23.2 32.3 1.9 4 3.1 5.4 4.3 5.1 5.2-1.6 31-7.7 38.3-9.2 4.9-.9 9.4-2.2 10.2-2.8.8-.6 6.2-10.1 11.9-21.1 5.7-11 11.8-22.2 13.5-25 3.1-5 3.1-5 1.2-7.9-1-1.6-39.6-51.6-85.7-111-46.2-59.5-90.7-117.3-98.9-128.6-8.2-11.3-19.7-26.5-25.6-33.9-6-7.4-10.8-14-10.8-14.7 0-.7 1.4-2.2 3-3.4 3.8-2.7 3.8-4.4 0-10.3-3.6-5.7-9.6-10.1-16.6-12.4l-5.3-1.6-.6-6.6c-2.8-30.6-6.6-41.5-18-52-6-5.5-11.3-8-20.9-9.7-4.4-.8-9.3-2-10.7-2.5-1.4-.6-7.1-6.7-13-14.2-5.7-7.2-14.9-18.8-20.4-25.7C654.2 683.2 572 575.3 572 573.7c0-.7 8.2-12 18.1-25.2 32-42.6 53.4-71.7 65.9-89.6 29.3-41.7 41.4-54.1 58.8-60.1 5.8-2 8.5-2.3 20.2-2.2 12.8.1 14.5.4 31.5 4.9 50 13.3 56.5 14.5 78.2 14.5 23.4 0 42.3-4.5 64.7-15.4 18.4-9 31.3-18.3 46.6-33.6 30.5-30.4 45.1-60.7 49.1-101.6 1.4-14.1.7-36.1-1.6-48.8-6.1-34.2-26.6-76-53.9-110-17.6-22-44.1-46.8-64.5-60.6-31-20.8-61.4-33.8-94.8-40.4-21-4.2-31.2-5.1-61.8-5.1-27.5.1-29.4.2-36.5 2.4-21 6.5-53.4 22.2-68 33.2-35.1 26.1-56.4 62.4-62.1 105.6-1.7 13.3-.6 43 2 55.3 4.4 20.4 9.8 32.9 25.2 58.5 19.3 32.1 25.7 47.7 26.6 64.5.9 15.7-3.3 27.6-16.8 47.8-10 14.9-31.1 41.3-47.3 59.2-7.8 8.6-23 26.8-36.7 44.1-6.1 7.7-11.5 13.9-11.9 13.7-.5-.2-8.2-9.3-17.1-20.3-9-11-24.4-29.5-34.3-41-25.3-29.5-26.6-31.1-33.3-40-22.2-29.5-29.2-45.6-27.9-64 1.1-16.7 7.2-31.4 25.6-62 16.1-26.8 21.7-39.6 26.1-59.5 11-50.7-4.4-107.3-39.1-143.4-20.8-21.7-48.7-38.1-85.9-50.6C307.9.9 307.6.9 283.6.5c-13.2-.2-28.9 0-34.9.5zm65.5 89.1c25.5 5.3 46.7 33.2 46.8 61.5 0 7.6-3.1 19.9-6.7 26.7-3.5 6.5-13.5 16.7-19 19.6-2.3 1.1-7.2 3.2-10.7 4.5-6.7 2.4-16.6 8.2-16.6 9.7 0 .5 1.1 3.2 2.3 6.2 3.7 8.2 5.1 15.4 5.1 25.2 0 11.4-1.5 17.7-7.1 29.5-4 8.2-5.8 10.7-14.2 19-14 13.9-27.8 20.5-45.3 21.7-15.1 1-27.1-2.4-38.8-11.2-6.8-5.1-12-7.5-16.1-7.5-1 0-3.3 2.8-5.5 6.6-7.3 12.4-19.8 22.9-33 27.5-20.7 7.3-42.2 3.2-57.2-10.8-18.4-17.2-22.7-43.4-11.1-66.4 5.9-11.7 17.8-23.4 30.5-29.7 6.5-3.3 15.4-6.2 19.1-6.2 1.3 0 2.3-.3 2.3-.8 0-.4-1.3-4.6-3-9.4-9.4-27.7-3.5-55.3 16-74.8 15.8-15.8 36.6-22 58.6-17.4 8.8 1.8 21.5 6.1 30.5 10.4 3.5 1.6 6.9 3 7.5 3 .6 0 1.8-1.6 2.7-3.5 2.5-5.1 14.8-17.6 22.7-22.9 15-10.1 27.1-13.2 40.2-10.5zm397.2.5c15.7 4 35.5 18.9 43.7 32.9 2.5 4.2 1.8 4.3 14.8-1.5 15.3-6.7 26.6-9.4 40.1-9.4 9.6-.1 12.7.3 18.9 2.3 15.9 5.2 30.8 18.6 38.6 34.6 9 18.4 9.8 36.3 2.4 57.5-1.6 4.6-2.9 8.5-2.9 8.6 0 .1 2 .4 4.5.7 6.4.9 18.1 5.7 24.9 10.2 33.3 22.1 39.1 65.2 12.3 91.5-10.5 10.4-25.3 15.7-40.4 14.7-10.2-.7-22.7-4.9-30.5-10.1-7.5-4.9-16.6-14.8-20.3-21.9-2.2-4.2-3.6-5.7-5.1-5.7-3.9 0-8.9 2.3-15.5 7.1-12.7 9.4-24.1 12.7-39.8 11.6-17.3-1.2-34-9.3-46.6-22.8-13.7-14.5-19.6-29.1-19.6-48 0-8.6.4-11.1 3.2-18.7 1.7-4.8 3.2-9.8 3.3-11.1.1-3.3-5.5-7.1-15.7-10.7-23-7.9-35.9-26.5-35.9-51.4 0-17 6.6-32.4 19.1-45.1 14.2-14.3 30.1-19.5 46.5-15.3z"/></svg>