
<svg version="1.0" xmlns="http://www.w3.org/2000/svg"
 width="50" height="42" viewBox="0 0 1280.000000 1249.000000"
 preserveAspectRatio="xMidYMid meet">
<metadata>
Created by potrace 1.15, written by Peter Selinger 2001-2017
</metadata>
<g transform="translate(0.000000,1249.000000) scale(0.100000,-0.100000)"
fill="#0000FF" stroke="none">
<path d="M6178 12479 c-16 -9 -18 -26 -18 -122 0 -125 -18 -195 -90 -357 -21
-47 -45 -104 -55 -126 l-17 -42 -182 -6 c-99 -3 -419 -10 -711 -17 -291 -6
-549 -13 -573 -16 -32 -4 -46 -11 -52 -27 -10 -28 6 -46 42 -46 80 0 103 -57
95 -242 -6 -162 -39 -330 -101 -518 -50 -152 -57 -169 -132 -332 -30 -64 -54
-122 -54 -129 0 -6 -23 -52 -51 -101 -29 -50 -48 -93 -43 -98 12 -11 149 46
249 104 44 25 90 46 103 46 12 0 33 6 45 14 34 22 334 142 412 164 95 28 390
90 445 94 56 4 56 6 -12 -157 -58 -138 -94 -211 -107 -219 -5 -3 -137 -13
-292 -21 -156 -8 -383 -22 -504 -29 -121 -8 -268 -18 -326 -21 l-106 -7 -7
459 c-4 252 -11 478 -15 502 -9 45 -40 95 -56 93 -6 -1 -11 -102 -13 -252 -2
-231 -4 -251 -20 -248 -12 2 -33 -25 -76 -97 -32 -55 -91 -153 -130 -219 -39
-65 -89 -149 -111 -187 -22 -37 -128 -200 -236 -361 -364 -544 -593 -896 -717
-1100 -19 -32 -39 -58 -45 -58 -7 0 -8 258 -4 843 4 463 4 859 1 879 -7 38
-36 60 -55 41 -5 -5 -12 -62 -15 -127 -5 -86 -11 -119 -21 -123 -7 -3 -25 -25
-39 -49 -14 -24 -46 -74 -70 -111 -25 -37 -99 -158 -165 -268 -183 -303 -451
-720 -686 -1068 -34 -51 -93 -138 -130 -195 -77 -116 -305 -460 -397 -598 -34
-51 -86 -135 -116 -188 -30 -53 -80 -124 -111 -159 -53 -59 -56 -64 -44 -87
11 -21 11 -31 -1 -60 -19 -45 -37 -64 -109 -116 -44 -33 -68 -44 -96 -44 -63
0 -81 -53 -22 -65 55 -12 111 -36 128 -55 17 -18 17 -25 1 -122 -9 -57 -27
-281 -41 -498 -14 -217 -32 -460 -40 -540 -37 -357 -48 -1309 -20 -1675 16
-214 31 -539 45 -1010 6 -176 11 -331 12 -345 3 -21 -2 -25 -36 -31 -33 -5
-56 -21 -56 -39 0 -20 27 -31 95 -40 44 -6 100 -17 125 -25 51 -17 496 -108
638 -131 52 -8 135 -23 185 -33 51 -11 121 -22 157 -26 36 -4 146 -24 245 -45
99 -22 209 -44 245 -50 80 -12 170 -36 181 -47 13 -13 29 -108 29 -169 0 -48
-2 -54 -21 -54 -29 0 -165 35 -289 75 -58 18 -174 52 -259 75 -140 38 -158 41
-190 30 -25 -9 -149 -14 -398 -17 -290 -4 -365 -8 -374 -19 -8 -10 -5 -35 15
-104 31 -109 31 -110 7 -152 -11 -18 -23 -51 -26 -73 -4 -22 -15 -53 -25 -70
-10 -16 -20 -43 -24 -58 -4 -17 -16 -31 -31 -37 -14 -5 -26 -17 -26 -27 -4
-55 5 -123 22 -162 11 -24 17 -46 15 -48 -6 -6 -857 16 -868 23 -16 10 -58 -6
-58 -21 0 -12 13 -15 58 -15 31 0 136 -4 232 -10 96 -6 282 -14 412 -20 160
-6 247 -14 270 -23 18 -8 63 -39 99 -70 36 -32 69 -57 71 -57 10 0 165 -104
225 -152 34 -27 75 -71 92 -98 26 -43 35 -50 62 -50 17 0 43 -8 57 -18 35 -24
164 -49 344 -67 79 -8 175 -21 213 -30 77 -17 299 -31 253 -16 -14 5 -54 12
-87 16 -34 4 -59 10 -56 15 2 4 34 10 71 13 47 5 72 12 85 25 12 13 38 21 84
26 37 4 126 20 198 36 157 36 161 36 221 9 26 -11 104 -33 174 -49 70 -16 147
-36 171 -44 54 -20 99 -20 176 -1 33 8 119 24 190 34 72 11 173 27 225 35 335
53 378 56 476 24 62 -21 86 -23 228 -20 l159 2 161 -51 c89 -28 168 -54 176
-58 8 -3 -19 -7 -61 -9 -64 -2 -91 2 -164 28 -96 33 -132 39 -104 17 9 -7 19
-22 23 -34 9 -27 46 -39 173 -55 81 -10 100 -10 170 7 43 10 110 20 148 22 39
2 155 10 259 19 155 13 200 14 254 3 141 -26 488 22 720 100 51 17 99 31 105
31 7 0 48 -15 92 -34 150 -62 347 -105 880 -191 91 -15 487 -40 740 -47 55 -2
191 1 303 6 236 10 222 2 222 126 0 81 34 337 53 400 l13 45 67 0 c81 0 95 11
110 91 12 57 14 60 62 83 59 29 98 30 220 7 60 -11 133 -16 218 -15 109 2 130
0 146 -15 11 -10 25 -15 30 -11 15 9 14 40 -1 53 -8 5 -101 12 -213 15 -195 5
-245 10 -245 28 0 5 14 28 30 51 43 61 47 102 18 176 l-25 60 30 26 c32 28 31
21 15 140 -6 37 26 42 92 12 44 -20 71 -26 92 -22 34 7 107 57 157 110 29 30
42 36 75 36 39 0 225 39 541 114 134 32 205 43 205 32 0 -12 82 -307 94 -341
19 -50 20 -104 3 -111 -8 -3 -209 11 -448 30 -797 65 -759 63 -759 37 0 -20
82 -31 470 -61 764 -59 747 -57 775 -76 38 -25 65 -8 110 68 21 35 86 133 145
218 112 163 465 681 891 1310 140 206 320 475 401 597 81 122 156 227 167 232
11 6 33 11 50 11 28 0 31 3 31 30 0 28 9 37 90 89 75 49 100 60 150 65 54 6
62 11 100 53 22 25 40 50 40 55 0 16 -32 21 -62 10 -22 -8 -37 -7 -63 4 -43
17 -45 17 -45 -1 0 -57 -100 22 -600 474 -179 162 -392 356 -475 430 -82 74
-233 212 -335 306 -226 209 -486 446 -680 620 -81 72 -326 292 -546 490 -219
199 -496 448 -615 555 -742 670 -672 603 -643 618 17 9 24 20 22 35 -3 20 -10
22 -70 25 l-66 3 -168 152 c-92 84 -176 163 -186 177 -33 46 -124 469 -164
765 -18 141 -32 645 -17 645 5 0 74 -78 153 -172 79 -95 277 -328 439 -518
523 -611 580 -678 658 -772 43 -51 141 -165 218 -252 156 -178 316 -364 540
-632 220 -262 686 -806 775 -904 42 -47 139 -159 215 -250 77 -91 180 -212
230 -270 51 -58 226 -265 390 -460 164 -195 373 -440 465 -545 91 -104 207
-238 258 -297 102 -119 110 -126 118 -104 4 10 -62 94 -199 253 -113 131 -251
292 -308 359 -121 140 -355 416 -553 653 -77 91 -448 526 -825 966 -377 440
-752 879 -834 975 -81 96 -175 207 -210 246 -34 38 -159 185 -278 325 -119
140 -326 382 -459 539 -133 157 -308 362 -389 455 -81 94 -204 238 -274 321
l-127 151 0 55 c0 49 13 146 26 189 3 12 22 19 71 24 36 4 77 12 90 18 22 10
22 11 7 29 -14 14 -32 18 -91 18 -76 0 -113 11 -113 34 0 7 -23 60 -51 117
-109 220 -168 406 -213 664 -30 174 -38 285 -28 395 l7 84 59 11 c46 8 61 15
67 32 17 46 10 47 -469 34 -651 -17 -805 -15 -830 7 -23 19 -314 358 -353 412
-20 26 -28 52 -33 104 -7 67 -19 106 -34 106 -4 0 -15 -5 -24 -11z m208 -406
c137 -157 179 -211 171 -219 -3 -3 -68 -8 -145 -11 -111 -5 -141 -3 -148 8
-11 19 -19 359 -7 359 5 0 63 -62 129 -137z m-211 -77 c0 -146 -1 -155 -20
-160 -39 -11 -86 -6 -91 9 -8 19 95 305 109 305 1 0 2 -70 2 -154z m1075 -225
c8 1 124 3 258 5 l243 5 -8 -63 c-4 -35 -7 -112 -6 -173 1 -60 2 -159 2 -220
1 -60 8 -157 16 -215 9 -58 22 -150 29 -205 8 -59 25 -126 40 -164 31 -73 25
-91 -21 -68 -43 23 -49 33 -99 168 -57 155 -73 238 -81 412 -4 93 -10 136 -17
134 -18 -6 -27 -96 -21 -211 6 -126 25 -224 65 -351 16 -49 27 -91 25 -94 -3
-2 -22 0 -43 5 -47 12 -60 37 -106 214 -29 111 -36 161 -42 283 -5 107 -10
147 -19 147 -29 0 -31 -258 -4 -414 14 -80 0 -91 -41 -35 -50 68 -58 96 -66
227 -6 113 -16 148 -28 105 -2 -10 -7 -53 -11 -95 -4 -43 -10 -78 -14 -78 -10
0 -46 40 -60 67 -6 12 -11 35 -11 52 0 36 -15 48 -37 30 -18 -16 -18 -16 -251
259 -81 96 -162 192 -181 213 -18 22 -30 43 -26 47 9 9 316 21 420 16 44 -2
87 -3 95 -3z m-493 -119 c55 -64 144 -169 196 -232 95 -114 96 -115 90 -160
-3 -25 2 -120 11 -211 22 -229 24 -211 -26 -207 l-43 3 -7 85 c-4 47 -12 95
-18 108 -5 13 -10 35 -10 50 0 44 -11 72 -28 72 -15 0 -15 -30 5 -242 l6 -68
-42 0 c-32 0 -41 4 -41 18 0 52 -22 197 -32 216 -11 19 -13 17 -19 -29 -4 -27
-8 -82 -8 -122 -1 -39 -6 -75 -12 -78 -6 -4 -25 -4 -43 -1 l-33 6 -5 121 c-5
116 -16 156 -34 127 -5 -7 -10 -66 -12 -130 l-4 -118 -44 0 -44 0 0 134 c0 74
-4 137 -9 141 -13 8 -19 -17 -26 -115 -4 -47 -11 -102 -16 -122 -9 -34 -13
-38 -42 -38 -57 0 -60 6 -52 122 6 88 5 106 -9 117 -19 16 -23 4 -36 -126 -5
-51 -12 -97 -15 -103 -3 -5 -21 -10 -38 -10 l-33 0 4 101 c4 82 2 101 -9 97
-8 -3 -17 -24 -21 -49 -27 -151 -26 -149 -67 -149 l-37 0 4 90 c3 61 1 90 -6
90 -11 0 -18 -19 -44 -130 -12 -52 -15 -55 -46 -58 l-34 -3 7 40 c24 141 24
171 0 171 -13 0 -22 -34 -41 -145 -10 -58 -22 -77 -47 -73 -22 3 -22 6 -18
131 2 84 0 127 -7 127 -11 0 -22 -44 -43 -175 -13 -78 -22 -95 -52 -95 -18 0
-19 5 -14 44 20 143 16 249 -7 225 -3 -3 -13 -57 -21 -120 -21 -145 -29 -163
-78 -167 -35 -3 -37 -1 -37 25 0 15 9 62 20 103 23 88 26 144 8 138 -7 -3 -24
-49 -37 -104 -41 -174 -42 -177 -79 -188 -18 -5 -35 -6 -39 -2 -4 4 1 39 11
79 23 89 33 207 18 207 -11 0 -18 -19 -48 -146 -9 -38 -26 -90 -38 -115 -19
-39 -25 -44 -58 -47 -22 -2 -38 1 -38 8 0 5 15 61 34 123 42 140 55 211 35
205 -16 -5 -44 -79 -90 -237 -36 -120 -44 -131 -105 -131 -19 0 -24 4 -20 18
25 84 76 303 76 325 0 41 -15 33 -38 -20 -18 -44 -86 -280 -94 -327 -3 -20
-52 -40 -75 -32 -12 5 11 129 42 226 25 80 29 120 12 120 -8 0 -19 -12 -25
-27 -18 -45 -57 -173 -77 -248 -10 -38 -25 -78 -33 -87 -17 -20 -70 -40 -77
-28 -8 13 73 256 107 321 29 54 32 89 8 89 -5 0 -10 -6 -10 -13 0 -7 -11 -28
-25 -47 -24 -32 -74 -152 -127 -304 -23 -67 -62 -114 -85 -105 -6 2 23 103 63
224 40 121 73 231 73 243 1 33 -19 23 -34 -18 -7 -19 -23 -60 -35 -90 -13 -30
-50 -129 -84 -219 -62 -167 -89 -208 -129 -199 -13 2 -5 32 49 163 56 139 124
358 124 401 0 8 -6 14 -13 14 -8 0 -25 -43 -45 -110 -35 -123 -136 -366 -185
-450 -32 -53 -98 -103 -105 -80 -2 6 12 39 32 74 20 36 36 78 36 96 0 17 14
63 31 101 64 146 155 455 126 429 -9 -8 -48 -111 -62 -165 -8 -27 -41 -113
-75 -190 -34 -77 -72 -167 -85 -200 -26 -69 -127 -230 -151 -239 -22 -8 -16 8
87 232 49 106 104 235 123 285 39 104 98 332 117 449 14 95 7 246 -15 308 -9
24 -15 49 -12 56 3 8 98 13 343 18 358 7 1407 35 1483 40 25 1 74 3 110 4 l65
2 102 -118z m434 -585 c4 -50 10 -129 14 -175 l8 -82 -34 6 c-47 9 -59 21 -59
58 0 17 -9 103 -20 190 -28 220 -30 210 32 148 l53 -52 6 -93z m87 -20 c24
-25 36 -52 51 -112 28 -116 29 -129 8 -133 -30 -6 -64 6 -72 25 -4 10 -11 59
-15 108 -4 50 -11 102 -15 118 -9 36 4 34 43 -6z m642 -312 c17 -49 28 -91 24
-94 -16 -17 -53 55 -77 152 -15 59 -27 112 -26 119 1 18 42 -75 79 -177z
m-465 105 c49 -59 53 -70 25 -70 -56 0 -100 51 -100 117 0 20 3 21 18 12 9 -6
35 -33 57 -59z m-541 -40 c267 -17 551 -62 649 -104 30 -12 197 -196 197 -217
0 -14 -55 -18 -480 -39 -234 -11 -506 -25 -604 -30 -262 -15 -331 -13 -347 6
-14 17 -42 373 -30 386 3 3 17 9 31 12 33 6 391 -2 584 -14z m-708 -37 c4 -26
3 -101 -1 -167 -5 -67 -8 -140 -9 -163 l-1 -42 -55 -5 c-30 -3 -181 -13 -335
-21 -154 -8 -298 -16 -320 -17 -23 -2 -39 1 -38 7 8 41 139 368 154 383 11 13
38 22 76 26 32 4 83 11 113 17 70 12 232 26 332 28 l77 1 7 -47z m-2154 -228
c3 -243 3 -241 43 -259 6 -3 2 -11 -7 -19 -22 -17 -22 -35 -3 -61 22 -29 19
-46 -7 -43 l-23 2 -3 -335 c-1 -184 2 -447 6 -585 5 -137 7 -256 5 -262 -10
-27 -21 -11 -28 40 -18 135 -43 911 -44 1381 -1 289 0 300 21 337 12 22 25 39
29 39 4 0 9 -106 11 -235z m3700 106 c29 -11 92 -31 139 -45 58 -17 97 -36
118 -55 53 -49 44 -57 -71 -65 l-103 -7 -63 67 c-35 37 -72 80 -83 96 -25 35
-14 36 63 9z m-3799 -263 c4 -128 7 -357 7 -508 0 -151 5 -305 10 -343 6 -37
15 -174 21 -305 6 -130 14 -268 18 -307 7 -68 -8 -164 -29 -190 -5 -6 -46
-105 -90 -220 -181 -465 -161 -426 -230 -445 -60 -17 -69 -27 -41 -50 13 -11
29 -20 37 -20 20 0 18 -26 -21 -215 -92 -440 -87 -405 -89 -697 0 -148 -3
-267 -7 -265 -3 1 -111 72 -240 159 -251 168 -541 339 -760 448 -145 73 -284
126 -438 166 -52 13 -96 26 -98 27 -5 6 111 188 307 482 230 344 467 707 710
1085 97 151 298 460 447 685 149 226 314 485 368 578 54 92 101 167 105 167 4
0 10 -105 13 -232z m4097 19 c0 -26 -23 -143 -30 -150 -4 -4 -33 26 -65 68
-35 46 -55 79 -49 85 9 9 109 18 132 11 6 -2 12 -8 12 -14z m-1790 3 c0 -5 -5
-10 -11 -10 -5 0 -7 5 -4 10 3 6 8 10 11 10 2 0 4 -4 4 -10z m1626 -57 c28
-32 69 -83 92 -114 l43 -57 3 -328 c2 -181 9 -369 15 -419 12 -96 72 -418 96
-522 17 -69 19 -113 7 -113 -4 0 -26 19 -49 43 -40 40 -43 47 -67 172 -15 72
-35 173 -46 225 -11 52 -24 158 -30 235 -13 187 -30 327 -41 345 -13 22 0
-359 17 -510 8 -69 20 -171 26 -227 7 -56 8 -106 4 -110 -4 -4 -20 6 -35 22
-23 26 -34 64 -75 245 -64 287 -65 290 -78 290 -14 0 -4 -84 33 -275 16 -82
29 -153 29 -157 0 -33 -105 69 -113 109 -3 15 -15 62 -26 103 -11 41 -23 97
-26 126 -7 52 -19 83 -30 73 -3 -4 1 -64 9 -135 9 -70 13 -130 10 -133 -3 -3
-28 17 -54 46 -54 58 -54 61 -66 261 -9 156 -27 135 -34 -38 l-5 -130 -95 86
c-52 47 -151 136 -220 197 -383 339 -740 661 -740 668 0 10 80 16 370 29 310
13 800 40 820 44 8 2 58 4 110 5 l96 1 50 -57z m-1251 -265 c154 -138 377
-338 496 -444 119 -106 220 -201 223 -211 4 -10 12 -81 17 -158 6 -77 17 -165
25 -195 8 -30 24 -95 35 -145 12 -49 30 -112 41 -139 l19 -49 -41 6 c-22 3
-47 10 -54 16 -7 6 -18 43 -25 83 -15 95 -23 125 -61 233 -30 87 -92 320 -106
398 -10 55 -24 55 -24 -1 0 -93 82 -473 136 -627 7 -22 14 -49 14 -61 0 -18
-4 -20 -37 -15 -27 5 -42 14 -54 36 -14 24 -76 248 -171 619 -6 24 -13 35 -19
29 -16 -16 48 -343 111 -559 17 -58 30 -108 28 -109 -5 -6 -102 15 -109 23
-19 20 -87 326 -119 532 -25 164 -46 200 -36 62 13 -175 54 -467 74 -524 11
-31 17 -59 14 -62 -8 -8 -55 -7 -68 2 -17 10 -31 74 -38 172 -4 46 -14 127
-22 180 -8 52 -18 138 -22 190 -4 55 -11 94 -17 93 -18 -5 -16 -125 4 -268 20
-144 31 -348 19 -361 -4 -3 -32 -3 -63 1 l-55 6 0 82 c0 98 -19 453 -26 485
-2 12 -9 22 -15 22 -7 0 -9 -88 -3 -295 l7 -295 -47 0 -46 0 0 203 c0 201 -6
277 -20 277 -9 0 -17 -96 -26 -312 l-6 -158 -38 0 c-26 0 -40 5 -44 17 -4 9
-4 101 0 203 5 132 4 189 -4 194 -14 9 -18 -20 -33 -229 -6 -93 -15 -173 -21
-176 -14 -9 -58 2 -59 15 -1 6 -2 108 -3 228 -1 194 -5 242 -21 226 -3 -2 -9
-105 -14 -228 -5 -122 -14 -227 -19 -232 -14 -14 -51 8 -56 35 -17 83 -20 119
-21 259 0 146 -5 182 -22 164 -4 -4 -11 -109 -15 -233 -5 -125 -10 -228 -11
-230 -2 -1 -19 -4 -38 -5 l-34 -3 -5 180 c-3 99 -8 169 -12 155 -13 -45 -28
-156 -28 -202 0 -25 -3 -66 -6 -92 -7 -45 -8 -46 -42 -46 l-35 0 7 88 c4 48
11 123 16 167 11 102 12 246 1 263 -10 17 -21 -31 -21 -92 0 -22 -7 -90 -15
-151 -8 -60 -17 -135 -20 -166 -8 -76 -35 -119 -76 -119 -30 0 -31 1 -25 33
26 120 36 205 36 292 0 132 -15 114 -35 -41 -16 -123 -48 -259 -67 -281 -15
-19 -68 -17 -68 2 0 8 8 55 19 103 26 122 30 157 21 173 -5 7 -11 11 -13 9
-11 -15 -77 -280 -72 -292 5 -12 -3 -17 -30 -22 -21 -4 -40 -5 -43 -2 -3 3 2
41 11 83 9 43 19 100 23 128 4 27 13 64 20 81 18 44 31 254 16 254 -7 0 -12
-1 -13 -2 0 -2 -6 -52 -13 -113 -14 -114 -60 -302 -97 -392 -19 -47 -48 -71
-70 -58 -4 3 3 38 16 77 44 139 92 468 68 468 -5 0 -21 -64 -36 -143 -48 -258
-106 -418 -154 -425 -27 -4 -28 2 -9 54 22 64 68 255 62 261 -16 17 -36 -16
-61 -104 -50 -176 -78 -233 -117 -233 -14 0 -18 5 -14 18 37 120 50 169 81
300 41 179 54 273 35 255 -7 -6 -20 -44 -30 -85 -65 -271 -124 -447 -161 -487
-19 -20 -65 -38 -75 -29 -2 3 13 50 35 104 79 198 156 530 126 540 -6 2 -26
-58 -46 -133 -55 -212 -84 -300 -130 -398 -52 -111 -75 -145 -99 -145 -18 0
-16 7 15 95 44 122 78 256 105 423 20 119 21 156 5 140 -3 -2 -22 -81 -44
-174 -40 -178 -66 -257 -134 -418 -29 -67 -49 -102 -65 -109 -31 -14 -38 -2
-23 36 50 123 107 317 136 462 36 173 42 235 26 235 -12 0 -25 -42 -46 -140
-9 -41 -23 -92 -31 -113 -8 -20 -14 -56 -14 -80 -1 -82 -121 -376 -179 -436
-48 -50 -51 -25 -7 70 68 150 150 449 128 471 -9 9 -13 8 -16 -3 -117 -335
-142 -394 -228 -542 -36 -61 -81 -107 -94 -95 -3 3 23 68 57 144 92 208 189
528 206 679 10 94 -16 34 -86 -196 -81 -264 -106 -330 -172 -464 -91 -184
-113 -218 -147 -232 -45 -18 -43 -9 27 144 33 71 75 183 95 248 19 66 51 173
71 239 59 194 77 286 56 286 -10 0 -42 -90 -123 -345 -72 -228 -109 -328 -189
-501 -53 -114 -65 -133 -95 -147 -19 -9 -34 -15 -34 -13 0 2 20 51 44 108 125
292 285 898 237 898 -6 0 -11 -2 -11 -4 0 -28 -57 -261 -79 -326 -17 -47 -57
-170 -90 -273 -97 -300 -201 -487 -272 -487 -11 0 -19 1 -19 3 0 2 20 39 45
83 64 112 122 265 239 629 62 194 118 450 87 395 -5 -8 -35 -103 -67 -210 -31
-107 -75 -235 -96 -285 -22 -49 -50 -124 -64 -165 -14 -41 -29 -79 -33 -85 -5
-5 -12 -26 -16 -45 -10 -49 -61 -148 -135 -265 -120 -190 -137 -182 -47 22
129 293 208 507 293 796 121 415 159 642 152 905 -3 89 -2 165 2 167 9 6 390
32 650 45 261 13 858 48 1105 64 105 8 206 14 225 14 32 1 58 -20 315 -250z
m-2371 -93 c0 -252 -23 -412 -91 -645 -16 -55 -22 64 -22 458 l-1 403 58 -3
57 -3 -1 -210z m-1693 -501 c-14 -896 -15 -915 -52 -979 -34 -59 -115 -180
-220 -331 -42 -60 -114 -170 -161 -244 -47 -74 -119 -184 -161 -244 -45 -65
-78 -123 -82 -145 -5 -27 -17 -44 -51 -70 -46 -35 -51 -49 -33 -82 7 -15 20
-20 42 -19 18 1 40 2 51 1 21 -1 21 9 -9 -186 -8 -55 -20 -174 -26 -265 -6
-91 -13 -167 -15 -169 -7 -7 -50 36 -172 174 -64 72 -163 179 -221 239 -111
114 -382 357 -463 415 -27 19 -48 37 -48 41 0 23 296 484 818 1271 200 302
529 823 657 1039 88 149 147 241 152 237 2 -3 0 -310 -6 -683z m1536 -127 c-1
-45 -3 -5 -3 88 0 94 2 130 3 82 2 -48 2 -125 0 -170z m-1496 160 c-13 -13
-15 21 -3 50 6 15 8 13 10 -11 2 -16 -1 -33 -7 -39z m4847 -176 l58 -49 12
-83 c6 -46 14 -106 17 -134 2 -27 12 -86 20 -130 34 -175 39 -215 28 -226 -18
-18 -54 1 -69 37 -32 76 -134 551 -134 623 0 17 5 14 68 -38z m-3351 -178 c-2
-21 -4 -6 -4 32 0 39 2 55 4 38 2 -18 2 -50 0 -70z m3542 10 c17 -21 32 -53
36 -77 15 -98 49 -258 71 -336 32 -113 32 -114 -13 -95 -21 9 -46 24 -55 33
-24 24 -70 251 -95 470 -6 54 14 56 56 5z m158 -140 c35 -34 42 -47 58 -122 9
-47 30 -130 46 -185 16 -56 29 -106 29 -113 0 -15 -65 5 -84 26 -16 17 -106
364 -106 406 0 34 10 32 57 -12z m217 -292 c42 -149 44 -171 15 -171 -27 0
-52 58 -90 208 -34 136 -32 158 10 118 22 -21 37 -56 65 -155z m-1807 43 c2
-6 -32 -66 -77 -133 -44 -67 -100 -161 -124 -209 -36 -72 -109 -183 -156 -239
-6 -7 -27 -13 -46 -13 -52 0 -824 -42 -1031 -57 l-93 -6 19 54 c10 30 44 110
74 179 31 69 61 148 67 177 6 28 19 58 28 66 50 45 570 142 917 172 293 25
416 28 422 9z m448 -9 c549 -48 773 -88 1130 -200 216 -68 374 -129 428 -166
23 -16 54 -29 68 -29 28 0 42 -20 33 -45 -5 -12 -25 -15 -96 -15 -49 0 -246
-9 -436 -21 -191 -11 -446 -22 -567 -22 l-220 -2 -220 156 c-121 85 -248 174
-281 197 -64 43 -139 134 -130 158 3 8 7 14 8 14 2 0 129 -11 283 -25z m1484
-52 c41 -41 53 -61 77 -135 15 -48 25 -90 22 -93 -3 -4 -29 3 -57 16 -45 19
-52 26 -62 63 -5 22 -19 73 -30 112 -10 38 -19 73 -19 77 0 17 24 3 69 -40z
m-5539 7 c0 -5 -2 -10 -4 -10 -3 0 -8 5 -11 10 -3 6 -1 10 4 10 6 0 11 -4 11
-10z m3639 -277 c1 -150 -3 -224 -10 -229 -15 -9 -307 -29 -315 -22 -3 4 7 26
24 50 16 24 53 90 82 148 29 58 87 157 128 220 74 111 77 114 83 85 4 -16 7
-130 8 -252z m74 3 c1 -141 -2 -222 -8 -224 -6 -1 -11 86 -12 245 -1 170 1
240 8 224 5 -14 11 -124 12 -245z m67 174 c0 -5 -4 -10 -10 -10 -5 0 -10 5
-10 10 0 6 5 10 10 10 6 0 10 -4 10 -10z m58 -33 c12 -7 46 -45 75 -84 29 -40
73 -101 99 -136 55 -74 79 -117 72 -129 -3 -4 -18 -8 -34 -8 -35 0 -54 24
-130 160 -29 52 -68 119 -86 148 -44 68 -43 75 4 49z m-1651 -69 c-3 -24 -27
-92 -52 -153 -25 -60 -57 -137 -71 -171 -15 -36 -34 -66 -47 -72 -12 -6 -178
-20 -368 -32 -190 -11 -369 -23 -398 -27 -42 -5 -51 -3 -51 9 0 35 47 63 300
181 146 69 317 149 380 180 155 75 271 125 294 126 16 1 18 -4 13 -41z m3638
-69 c57 -56 102 -105 99 -110 -3 -5 -33 -9 -67 -9 l-62 0 -47 104 c-27 57 -48
106 -48 110 0 19 30 -4 125 -95z m-2013 40 c14 -24 29 -55 33 -69 6 -20 1 -16
-22 15 -16 22 -37 46 -46 54 -20 16 -23 55 -4 49 6 -3 24 -24 39 -49z m352
-117 c83 -56 193 -130 244 -165 51 -34 183 -125 295 -202 111 -76 353 -242
537 -369 184 -126 377 -261 429 -300 52 -39 123 -89 158 -111 35 -22 188 -129
341 -237 152 -109 327 -230 387 -269 99 -64 639 -437 1073 -741 92 -64 212
-148 267 -186 55 -37 197 -136 315 -218 389 -271 914 -631 983 -674 153 -96
46 -61 -313 102 -497 227 -668 298 -910 378 -338 113 -633 172 -1020 206 -167
14 -222 15 -380 5 -180 -11 -452 -47 -575 -76 -127 -29 -232 -83 -264 -136
-20 -33 -31 -28 -50 25 -6 15 -54 104 -107 198 -52 93 -117 215 -143 271 -64
136 -417 822 -526 1022 -49 88 -143 266 -210 395 -152 293 -195 370 -357 644
-94 158 -127 221 -119 229 6 6 40 13 76 15 36 2 65 8 65 12 0 17 -39 40 -78
46 -33 5 -47 3 -62 -11 -18 -16 -20 -16 -53 9 -49 38 -196 254 -166 244 7 -2
80 -50 163 -106z m-336 -37 c55 -111 55 -117 -5 -113 l-48 3 -3 98 c-1 53 1
97 5 97 5 0 28 -38 51 -85z m2261 -117 c291 -266 520 -473 761 -688 157 -140
380 -340 495 -445 116 -105 345 -312 510 -460 165 -148 453 -409 640 -580 731
-667 1211 -1099 1363 -1224 61 -51 112 -99 112 -107 0 -8 -14 -23 -31 -32 -17
-9 -61 -36 -97 -60 -36 -23 -76 -42 -88 -42 -11 0 -56 25 -98 55 -42 31 -199
137 -349 237 -150 100 -366 247 -482 328 -115 80 -336 233 -490 340 -154 107
-460 320 -680 474 -220 154 -467 327 -550 385 -155 107 -167 116 -495 341
-107 73 -245 170 -306 214 -61 45 -161 116 -223 159 -62 43 -113 84 -115 90
-83 321 -88 358 -90 602 -1 177 2 235 17 297 9 42 17 95 17 117 0 36 3 40 28
44 81 12 92 9 151 -45z m-239 25 c0 -10 -8 -58 -17 -108 -12 -66 -16 -152 -17
-320 -1 -233 7 -320 43 -477 11 -45 14 -78 9 -78 -6 0 -23 9 -39 21 -22 15
-29 28 -29 52 0 38 -36 323 -46 361 -3 14 -10 26 -15 26 -11 0 -11 -30 1 -209
6 -82 6 -149 1 -154 -5 -5 -20 2 -35 15 -26 22 -28 31 -37 137 -5 62 -12 117
-15 123 -13 20 -24 -10 -33 -90 -5 -46 -12 -86 -15 -89 -4 -4 -19 2 -34 14
-23 17 -27 29 -30 74 -4 76 -10 89 -28 65 -8 -11 -14 -32 -14 -48 0 -16 -5
-28 -13 -28 -22 0 -56 30 -59 53 -2 17 -9 22 -28 20 -17 -1 -62 23 -138 75
-502 343 -722 496 -722 503 0 5 6 9 14 9 33 0 909 52 1001 59 55 4 144 9 198
10 86 1 97 -1 97 -16z m-1910 -3 c0 -5 -2 -10 -4 -10 -3 0 -8 5 -11 10 -3 6
-1 10 4 10 6 0 11 -4 11 -10z m265 -162 c45 -69 116 -190 295 -508 32 -57 57
-106 55 -109 -9 -8 -36 24 -116 137 -46 65 -129 179 -185 254 -94 127 -184
271 -184 296 0 14 29 20 60 12 17 -4 41 -31 75 -82z m-88 -139 c96 -182 145
-289 133 -289 -14 0 -69 90 -181 294 -54 99 -99 190 -99 201 1 39 62 -48 147
-206z m-200 199 c14 -17 115 -256 146 -343 14 -38 35 -92 47 -120 30 -67 115
-319 134 -392 24 -99 59 -321 52 -338 -4 -11 -16 -15 -38 -13 l-33 3 -6 80
c-3 44 -13 105 -22 135 -8 30 -21 87 -27 127 -12 74 -39 132 -40 85 0 -12 9
-108 21 -213 23 -207 20 -223 -30 -217 -24 3 -26 7 -29 63 -5 110 -30 390 -37
408 -4 9 -11 17 -15 17 -16 0 -19 -50 -10 -200 5 -85 9 -186 10 -223 l0 -68
-32 3 -33 3 -7 100 c-7 107 -34 274 -51 315 l-10 25 -7 -25 c-4 -14 -3 -70 1
-125 10 -129 11 -283 2 -288 -5 -2 -20 -7 -34 -10 l-26 -7 -7 93 c-10 131 -34
294 -46 317 -6 11 -16 20 -22 20 -8 0 -9 -59 -4 -215 l7 -215 -30 0 c-24 0
-28 3 -24 19 7 27 -16 338 -28 368 -21 56 -29 7 -29 -181 0 -161 -3 -196 -15
-206 -9 -7 -17 -11 -19 -9 -2 2 -8 80 -13 172 -6 98 -14 172 -21 179 -17 17
-20 0 -26 -164 -7 -178 -14 -200 -58 -196 l-31 3 -3 151 c-2 158 -10 234 -24
234 -13 0 -18 -44 -26 -223 l-6 -168 -27 3 -26 3 -6 165 c-3 91 -10 173 -14
183 -17 40 -25 10 -25 -98 0 -154 -25 -265 -60 -265 -6 0 -11 82 -12 202 -2
143 -6 202 -15 205 -13 5 -16 -23 -31 -242 -11 -156 -16 -175 -43 -175 -23 0
-23 7 -8 151 14 127 -2 261 -28 235 -5 -4 -7 -40 -6 -79 5 -154 -30 -317 -67
-317 -17 0 -18 14 -17 225 1 144 -2 225 -8 225 -6 0 -13 -50 -17 -117 -17
-266 -38 -345 -91 -351 -33 -4 -33 -7 0 128 11 48 14 93 10 174 -7 136 -22
158 -32 44 -10 -119 -40 -286 -58 -331 -15 -35 -20 -38 -49 -35 -33 3 -33 3
-30 52 2 27 10 70 18 95 21 68 16 301 -7 301 -4 0 -10 -35 -14 -77 -3 -43 -17
-131 -31 -196 -13 -64 -24 -132 -24 -151 0 -28 -4 -34 -25 -38 -13 -3 -26 -4
-28 -2 -2 2 2 41 9 86 18 127 27 318 15 318 -13 0 -18 -19 -31 -110 -24 -164
-53 -295 -68 -307 -19 -15 -62 -17 -62 -3 0 5 6 42 14 82 23 117 35 239 28
292 -11 78 -28 68 -36 -21 -4 -43 -16 -121 -26 -173 -10 -52 -21 -117 -25
-143 -5 -38 -12 -50 -31 -59 -40 -19 -48 -1 -34 79 30 176 49 328 41 336 -13
13 -27 -17 -41 -88 -6 -33 -20 -98 -30 -145 -10 -47 -24 -111 -30 -143 -10
-48 -16 -60 -37 -68 -34 -13 -44 -4 -33 29 39 111 75 421 52 436 -6 3 -13 -5
-16 -21 -3 -16 -14 -77 -26 -138 -22 -119 -66 -289 -81 -317 -12 -22 -59 -24
-59 -3 0 8 8 47 19 87 20 76 58 424 48 434 -11 11 -27 -7 -27 -32 0 -30 -35
-228 -60 -338 -43 -191 -40 -185 -77 -197 -19 -6 -37 -8 -40 -5 -4 3 6 41 21
84 24 71 34 133 62 410 5 41 3 62 -4 62 -13 0 -13 1 -57 -215 -21 -99 -44
-198 -52 -220 -8 -22 -18 -61 -22 -87 -8 -54 -8 -53 -38 -62 -20 -6 -23 -4
-23 18 0 14 7 50 15 82 27 105 43 456 20 432 -3 -3 -12 -58 -21 -122 -8 -65
-19 -137 -23 -159 -53 -258 -60 -279 -100 -290 -29 -7 -30 -1 -15 68 53 238
83 535 55 535 -5 0 -14 -37 -20 -82 -30 -211 -77 -432 -107 -504 -15 -35 -58
-74 -81 -74 -11 0 -13 5 -8 18 45 104 126 632 98 632 -6 0 -18 -44 -28 -97
-26 -147 -93 -440 -116 -511 -19 -59 -47 -92 -76 -92 -18 0 -16 20 7 72 42 96
109 439 127 651 7 78 -11 94 -22 20 -10 -74 -104 -489 -125 -552 -51 -156 -72
-207 -98 -228 -15 -13 -35 -23 -44 -23 -14 0 -12 9 12 68 46 107 88 270 135
522 20 106 31 270 18 270 -16 0 -21 -19 -33 -132 -19 -176 -103 -471 -185
-647 -52 -112 -75 -140 -118 -141 -15 0 -11 12 23 76 22 42 40 85 40 97 0 12
16 83 36 157 46 176 114 538 114 615 0 66 -22 1 -55 -161 -54 -269 -98 -430
-165 -609 -51 -134 -95 -220 -122 -239 -45 -32 -47 -17 -9 67 75 162 176 492
215 699 45 241 50 290 50 508 1 175 -2 229 -17 292 -11 42 -16 81 -13 86 10
17 60 21 541 52 463 30 558 35 1105 65 584 32 826 46 840 49 42 10 168 5 177
-6z m-2718 -204 c11 -29 14 -95 15 -254 1 -270 -21 -430 -101 -758 -61 -246
-65 -255 -105 -202 -39 53 -48 502 -14 685 67 354 112 551 128 567 26 26 60
10 77 -38z m2971 -234 c11 -21 31 -56 46 -77 14 -21 48 -84 76 -140 28 -58 58
-105 68 -108 18 -6 58 -81 111 -209 16 -38 33 -74 38 -80 5 -6 25 -51 46 -101
20 -49 52 -119 71 -155 20 -36 60 -128 90 -204 30 -77 68 -163 83 -190 16 -28
34 -69 41 -91 13 -40 74 -203 170 -455 29 -74 61 -164 72 -200 11 -36 37 -103
58 -150 20 -47 46 -114 58 -150 11 -36 30 -90 42 -120 12 -30 26 -72 31 -93 5
-21 18 -57 28 -80 19 -44 71 -214 71 -233 0 -6 -13 -28 -30 -49 -16 -21 -30
-42 -30 -47 0 -14 -141 -218 -150 -218 -4 0 -16 35 -25 78 -10 42 -28 111 -41
152 -13 42 -48 172 -78 290 -62 247 -120 453 -176 625 -180 556 -340 1030
-405 1200 -35 93 -176 491 -205 580 -13 39 -40 114 -61 168 -22 53 -39 100
-39 103 0 14 22 -12 40 -46z m209 -104 c36 -46 83 -113 105 -149 23 -36 62
-90 89 -120 26 -30 71 -93 100 -139 28 -47 79 -128 111 -179 81 -127 123 -206
286 -534 77 -154 203 -404 280 -555 152 -300 185 -373 175 -389 -3 -6 -24 -11
-45 -11 -32 0 -38 -3 -33 -16 4 -12 18 -15 59 -13 47 2 56 0 74 -23 29 -37 25
-46 -22 -59 -24 -6 -47 -13 -52 -16 -13 -9 16 -23 49 -23 36 0 41 -4 83 -57
l32 -42 -37 -10 c-21 -5 -49 -11 -62 -13 -43 -5 -36 -27 10 -30 24 -2 44 -9
47 -16 2 -7 -15 -32 -39 -54 -24 -23 -44 -49 -44 -59 -2 -20 -63 -124 -86
-145 -9 -8 -23 -12 -31 -9 -9 4 -47 97 -93 228 -43 122 -107 294 -143 382 -64
161 -192 501 -192 511 0 13 -259 632 -327 784 -245 540 -375 840 -365 840 4 0
36 -38 71 -84z m-5998 -85 c42 -27 274 -226 368 -315 80 -76 474 -507 468
-512 -3 -3 -41 19 -84 49 -186 129 -484 304 -909 534 -34 18 -68 40 -75 49
-12 14 -10 19 11 33 50 33 107 100 126 144 11 28 25 47 35 47 8 0 35 -13 60
-29z m1207 -26 c154 -48 255 -92 437 -188 163 -86 514 -295 610 -362 33 -23
98 -65 145 -93 85 -50 180 -126 180 -142 0 -5 -129 54 -287 132 -159 77 -333
159 -388 183 -55 24 -164 73 -243 110 -78 36 -184 81 -235 99 -50 19 -146 57
-212 84 -66 28 -159 65 -207 82 -49 18 -90 36 -93 41 -3 5 13 29 37 55 42 45
44 46 91 41 26 -4 101 -22 165 -42z m-30 -231 c97 -42 229 -96 294 -120 65
-24 144 -56 175 -72 32 -16 108 -51 168 -77 61 -26 200 -90 310 -142 110 -51
269 -126 353 -166 l153 -72 -5 -32 c-5 -37 -104 -312 -117 -329 -5 -6 -32 -14
-61 -17 -28 -4 -59 -13 -67 -22 -14 -13 -13 -17 2 -32 14 -15 33 -17 112 -15
l94 3 7 -37 c18 -97 -21 -382 -96 -704 -30 -129 -56 -210 -111 -342 -39 -95
-83 -195 -98 -222 -14 -27 -34 -63 -43 -81 -22 -43 -64 -75 -97 -75 -15 0 -37
-7 -49 -16 -33 -23 -13 -41 57 -49 l58 -7 18 -121 c22 -148 26 -311 10 -392
-7 -33 -24 -146 -39 -250 -29 -207 -64 -368 -157 -720 -33 -126 -69 -266 -80
-310 -20 -83 -58 -195 -66 -195 -2 0 -120 39 -261 86 -308 102 -412 130 -554
146 -80 9 -109 16 -114 27 -3 9 -10 117 -15 241 -5 124 -13 275 -18 335 -9 90
-36 1672 -34 1905 8 705 17 1167 25 1177 5 7 4 29 -3 59 -24 92 35 714 67 714
3 0 84 -34 182 -76z m-1036 -222 c120 -67 237 -134 260 -150 24 -16 111 -70
195 -120 200 -120 252 -158 260 -190 3 -14 3 -357 0 -762 -8 -972 6 -2220 28
-2515 16 -208 17 -377 2 -392 -4 -3 -103 17 -219 45 -309 76 -609 132 -778
147 -42 3 -81 9 -87 13 -6 4 -14 120 -22 312 -15 406 -30 735 -42 900 -5 74
-14 209 -20 300 -17 246 -4 1089 20 1405 11 138 25 340 31 450 30 563 41 687
61 712 10 11 19 9 53 -11 22 -13 139 -78 258 -144z m5838 -61 c5 -17 5 -31 0
-31 -8 0 -20 34 -20 59 0 21 9 8 20 -28z m-93 -91 c57 -5 111 -13 121 -19 19
-10 122 -294 110 -306 -3 -3 -91 -13 -195 -21 -103 -8 -224 -19 -268 -24 -129
-16 -150 -14 -163 15 -7 14 -12 39 -12 54 0 20 -6 30 -20 34 -18 5 -20 14 -20
99 0 51 -3 110 -6 130 -6 36 -6 37 32 41 77 8 321 6 421 -3z m-505 -38 c5 -18
7 -76 6 -130 -3 -91 -4 -97 -24 -100 -21 -3 -22 2 -29 122 -4 68 -4 129 0 136
13 20 39 5 47 -28z m-96 -53 c-6 -79 -27 -147 -80 -261 -24 -51 -30 -57 -64
-62 -51 -8 -335 -33 -577 -51 -110 -8 -345 -29 -523 -46 -177 -18 -324 -30
-327 -28 -21 22 92 249 124 249 27 0 61 42 61 76 0 22 6 34 18 38 71 22 662
112 892 136 90 9 308 23 444 29 l39 1 -7 -81z m-1433 -111 c-4 -7 -26 -40 -49
-73 -22 -33 -60 -94 -84 -135 -41 -72 -86 -130 -101 -130 -3 0 -9 19 -13 42
-4 23 -28 81 -54 129 -26 48 -44 91 -40 95 8 8 302 82 331 83 12 1 16 -3 10
-11z m-347 -173 c40 -92 55 -148 44 -165 -9 -14 -255 -46 -443 -56 l-118 -7
22 38 c12 20 27 60 34 88 l11 50 119 44 c127 47 275 93 288 90 4 -1 23 -38 43
-82z m1780 23 c-7 -36 -23 -58 -42 -58 -19 0 -17 19 6 58 26 42 45 42 36 0z
m99 -38 c-3 -5 -15 -10 -26 -10 -11 0 -17 5 -14 10 3 6 15 10 26 10 11 0 17
-4 14 -10z m758 -22 c18 -14 83 -198 167 -469 28 -92 64 -201 80 -244 17 -42
46 -140 66 -217 19 -78 41 -156 49 -175 13 -30 12 -35 0 -40 -25 -9 -62 24
-78 69 -9 24 -34 104 -57 178 -23 74 -46 150 -51 167 -6 18 -15 35 -20 38 -19
13 -7 -70 32 -222 58 -220 56 -205 29 -201 -29 4 -26 -2 -111 216 -66 170 -82
202 -95 189 -7 -7 41 -183 72 -265 13 -36 24 -77 24 -93 0 -58 -46 -49 -77 14
-21 42 -59 177 -65 226 -3 25 -32 50 -44 39 -3 -4 6 -73 20 -154 15 -81 23
-150 19 -155 -4 -4 -22 -5 -40 -2 -30 5 -32 8 -43 67 -6 33 -14 95 -17 136 -6
74 -17 105 -34 94 -5 -3 -9 -70 -9 -150 l0 -145 -42 3 c-37 3 -43 7 -50 33 -5
17 -10 87 -11 157 -1 69 -6 130 -10 134 -19 19 -27 -31 -27 -173 l0 -153 -29
0 c-49 0 -55 18 -61 190 -3 87 -8 161 -12 165 -4 4 -12 4 -19 0 -9 -6 -11 -51
-6 -182 l5 -174 -45 3 -44 3 -3 80 c-2 44 -4 105 -5 135 -2 92 -19 44 -31 -90
-11 -130 -16 -142 -60 -138 l-25 3 4 173 c2 115 0 172 -7 172 -14 0 -20 -31
-36 -193 -7 -76 -18 -143 -24 -149 -20 -20 -57 -1 -70 36 -10 27 -11 53 -3
111 14 95 14 165 2 165 -16 0 -18 -10 -36 -130 -9 -63 -21 -131 -26 -152 -9
-34 -12 -36 -55 -40 l-45 -3 6 34 c10 55 25 201 25 254 0 35 -4 47 -12 45 -14
-5 -19 -29 -43 -208 -9 -69 -22 -128 -28 -132 -7 -4 -24 -8 -39 -8 -24 0 -28
4 -28 28 0 15 5 45 9 67 16 70 25 235 13 235 -14 0 -25 -42 -53 -190 -21 -118
-38 -150 -79 -150 -30 0 -39 21 -30 70 17 90 30 272 20 289 -8 14 -9 14 -15 0
-3 -8 -16 -88 -29 -177 -12 -88 -29 -168 -36 -177 -17 -21 -87 -17 -82 4 2 8
9 38 17 68 8 29 17 103 21 164 6 93 5 111 -7 107 -8 -3 -19 -33 -26 -74 -21
-109 -44 -222 -54 -260 -10 -33 -12 -34 -59 -34 -59 0 -59 0 -30 109 22 83 27
215 8 209 -6 -2 -19 -42 -28 -89 -19 -91 -56 -206 -72 -226 -6 -7 -26 -13 -45
-13 -33 0 -35 2 -30 28 4 15 11 75 18 133 19 169 -8 220 -31 58 -37 -261 -23
-231 -109 -244 -42 -7 -44 -6 -38 16 30 124 49 301 32 309 -13 7 -41 -92 -63
-225 l-18 -110 -39 -3 c-35 -3 -37 -2 -31 20 13 41 20 318 8 318 -13 0 -17
-20 -37 -175 -19 -143 -28 -170 -65 -185 -32 -13 -66 -9 -63 7 1 5 11 56 23
113 40 197 12 232 -38 48 -41 -155 -58 -190 -96 -200 -33 -8 -33 -21 4 155 19
94 27 218 14 204 -4 -4 -21 -64 -39 -134 -40 -157 -60 -208 -93 -233 -47 -37
-78 -19 -51 31 30 56 72 349 50 349 -6 0 -12 -10 -15 -22 -18 -101 -69 -287
-89 -332 -19 -41 -32 -57 -52 -62 -14 -3 -29 -4 -32 0 -3 3 4 40 17 82 37 125
66 374 40 348 -5 -5 -23 -70 -40 -144 -57 -252 -80 -310 -122 -310 -22 0 -22
0 2 96 31 120 51 257 40 268 -5 5 -12 8 -14 5 -2 -2 -20 -67 -39 -144 -42
-169 -67 -231 -102 -247 -14 -6 -28 -8 -32 -4 -4 3 5 44 19 89 42 130 66 281
49 307 -12 18 -12 20 -46 -125 -16 -68 -43 -145 -70 -202 l-45 -92 -68 -20
c-119 -35 -142 -39 -147 -31 -3 4 4 30 16 57 50 117 123 499 91 479 -6 -3 -16
-32 -22 -64 -47 -224 -148 -484 -199 -509 -39 -19 -44 -5 -16 43 40 69 63 146
90 302 28 159 29 172 16 172 -12 0 -27 -42 -46 -125 -39 -176 -139 -408 -187
-435 -15 -8 -30 -11 -34 -7 -4 4 7 53 23 109 67 226 107 438 94 500 -9 40 -10
36 -41 -107 -44 -206 -93 -373 -151 -513 -9 -22 -66 -55 -81 -46 -3 2 9 50 28
107 19 56 50 188 69 292 19 105 39 213 44 240 5 28 7 52 5 54 -12 12 -25 -25
-49 -134 -58 -260 -151 -535 -202 -597 -14 -16 -53 -31 -53 -21 0 3 20 67 45
142 71 219 157 573 141 588 -11 11 -17 -3 -42 -113 -53 -225 -159 -516 -215
-584 l-20 -25 7 25 c4 14 35 89 70 168 59 131 115 307 143 452 6 30 24 150 40
265 22 161 27 234 24 311 l-5 102 38 6 c22 4 138 15 259 26 729 64 1052 93
1225 110 107 10 236 22 285 25 50 4 387 33 750 66 363 32 710 63 770 67 61 5
117 10 126 11 8 0 23 -5 32 -11z m-3173 -107 c-6 -23 -10 -52 -8 -64 3 -21 -2
-23 -112 -34 -142 -14 -257 -16 -245 -4 41 39 351 167 368 151 5 -4 3 -26 -3
-49z m5454 -850 c4 -5 -29 -12 -71 -16 -197 -17 -451 -63 -643 -116 -126 -35
-180 -57 -180 -76 0 -17 24 -17 59 2 95 48 454 124 691 145 186 16 230 14 265
-14 l30 -24 -25 -5 c-14 -3 -79 -11 -145 -17 -136 -12 -548 -79 -682 -111 -50
-12 -96 -29 -108 -40 -18 -18 -18 -19 -1 -19 10 0 52 9 94 20 121 30 434 87
578 104 235 29 343 20 446 -35 38 -20 223 -157 383 -283 82 -65 176 -136 208
-158 33 -22 101 -73 151 -112 50 -39 190 -143 311 -231 336 -243 500 -368 489
-372 -6 -2 -80 30 -165 71 -293 141 -408 185 -879 338 -394 127 -539 167
-1010 273 -80 18 -172 28 -385 40 -154 9 -320 20 -370 25 -49 5 -147 10 -217
10 -71 0 -128 4 -128 9 0 11 83 126 118 164 25 26 29 27 141 28 64 1 127 4
141 8 l24 7 -24 17 c-21 15 -39 16 -127 11 -57 -4 -103 -4 -103 0 0 5 8 21 17
37 12 20 28 31 53 35 79 13 92 27 40 45 -16 6 -30 15 -30 20 0 30 249 131 380
154 52 9 124 23 160 30 36 7 115 18 175 25 61 6 119 13 130 14 50 8 204 5 209
-3z m476 -31 c275 -41 667 -138 860 -213 214 -83 698 -287 731 -308 13 -9 94
-44 179 -79 221 -90 547 -252 593 -295 33 -30 37 -38 26 -51 -14 -17 -167
-109 -547 -328 l-253 -145 -162 116 c-89 64 -321 236 -516 382 -195 146 -400
300 -455 341 -56 41 -214 165 -351 275 -138 110 -287 229 -332 265 -46 35 -83
67 -83 70 0 8 155 -6 310 -30z m-364 9 l19 -22 -32 17 c-35 18 -41 26 -20 26
8 0 22 -10 33 -21z m-2798 -212 c18 -22 64 -158 58 -173 -3 -8 -19 -14 -36
-14 -24 0 -30 4 -31 23 0 12 -11 54 -23 92 -13 39 -21 73 -19 78 7 12 40 8 51
-6z m-310 -114 l3 -113 -31 0 -30 0 0 108 c0 60 3 112 7 116 4 4 16 6 28 4 19
-3 20 -11 23 -115z m135 95 c21 -34 39 -110 35 -149 -3 -32 -6 -35 -50 -43
-27 -5 -50 -7 -53 -5 -2 3 -7 53 -11 112 l-7 107 36 0 c27 0 40 -6 50 -22z
m85 -5 c52 -132 61 -164 47 -169 -27 -11 -38 2 -59 76 -12 41 -26 85 -30 98
-12 35 28 30 42 -5z m691 17 c58 -5 113 -16 126 -24 12 -8 35 -16 51 -18 21
-2 30 -9 32 -24 2 -12 -3 -24 -11 -27 -13 -5 -99 -15 -537 -61 -68 -8 -130
-12 -137 -9 -11 5 -73 141 -73 162 0 14 401 14 549 1z m-1024 -33 c3 -17 5
-68 3 -112 l-3 -80 -60 -8 c-82 -10 -396 -47 -401 -47 -10 0 -1 36 37 143 l41
116 52 9 c28 5 113 10 188 10 l137 2 6 -33z m-435 -11 c0 -28 -24 -51 -45 -42
-19 7 -19 30 1 50 23 24 44 20 44 -8z m-190 -6 c0 -24 -26 -38 -42 -22 -8 8
-8 15 2 27 18 21 40 19 40 -5z m90 0 c0 -15 -7 -20 -25 -20 -27 0 -32 9 -13
28 18 18 38 14 38 -8z m-180 -4 c0 -38 -110 -240 -139 -256 -10 -5 -74 -16
-144 -26 -102 -13 -130 -14 -142 -4 -19 16 -115 193 -115 212 0 17 123 41 360
68 188 22 180 22 180 6z m144 -64 c11 -19 -7 -52 -28 -52 -31 0 -36 8 -24 36
11 23 42 33 52 16z m-94 -11 c0 -12 -26 -32 -33 -25 -9 10 4 34 19 34 8 0 14
-4 14 -9z m189 0 c12 -8 13 -14 3 -35 -19 -43 -70 -28 -58 18 7 27 29 33 55
17z m-797 -76 c39 -73 65 -141 56 -150 -3 -3 -122 -17 -264 -31 -143 -13 -358
-35 -479 -49 -121 -13 -258 -27 -303 -31 l-84 -7 7 59 c4 33 13 65 20 72 25
27 395 119 645 161 389 65 352 67 402 -24z m2528 15 c6 -11 21 -66 34 -123 13
-56 37 -147 54 -202 16 -55 37 -137 46 -182 9 -46 18 -89 21 -95 5 -15 -46
-102 -129 -221 -32 -47 -56 -91 -54 -97 2 -7 16 7 32 30 15 23 30 39 33 36 10
-9 -49 -87 -62 -82 -7 2 -17 0 -23 -6 -7 -7 -15 -1 -26 21 -25 47 -36 37 -36
-31 0 -59 -3 -66 -41 -110 -22 -27 -44 -48 -48 -48 -5 0 -11 32 -14 72 -6 65
-26 112 -42 96 -3 -3 -1 -53 5 -112 l12 -106 -37 -60 c-36 -59 -52 -77 -61
-67 -3 3 -10 51 -15 106 -11 115 -35 241 -49 255 -20 20 -22 -32 -6 -192 28
-284 29 -255 -7 -301 -26 -34 -46 -50 -47 -38 0 1 -7 88 -15 193 -13 178 -26
244 -47 244 -6 0 -6 -115 -2 -279 l7 -280 -33 -50 c-17 -28 -36 -51 -40 -51
-4 0 -11 53 -15 118 -13 233 -32 480 -39 491 -4 6 -12 11 -18 11 -8 0 -9 -101
-4 -360 l7 -360 -26 -26 c-17 -17 -34 -24 -53 -22 l-27 3 -7 200 c-8 255 -24
515 -33 538 -4 9 -12 17 -17 17 -7 0 -9 -124 -6 -374 4 -371 4 -375 -16 -380
-12 -3 -30 -6 -42 -6 -20 0 -21 6 -28 213 -7 239 -24 525 -32 546 -3 10 -8 11
-15 4 -6 -6 -10 -142 -10 -379 1 -203 -3 -374 -7 -381 -4 -6 -27 -14 -52 -18
l-45 -7 4 200 c3 202 -12 491 -28 519 -12 22 -21 -93 -22 -302 -1 -99 -4 -232
-8 -295 l-6 -115 -58 -3 c-53 -3 -58 -1 -53 15 19 64 30 241 31 500 0 267 -4
318 -21 300 -3 -3 -10 -100 -15 -214 -7 -182 -37 -505 -55 -585 -5 -24 -11
-28 -40 -28 l-35 0 6 78 c9 113 11 779 3 788 -5 4 -11 5 -14 1 -3 -3 -12 -133
-20 -289 -17 -356 -31 -568 -37 -575 -3 -2 -24 -7 -48 -10 -41 -6 -42 -5 -35
18 24 87 27 140 24 443 -2 230 -6 328 -15 337 -15 15 -21 -39 -33 -336 -5
-132 -15 -289 -21 -348 -12 -100 -14 -110 -36 -118 -29 -11 -83 -12 -83 -1 0
4 7 66 15 137 10 87 15 227 14 425 0 272 -6 350 -22 324 -3 -6 -13 -152 -22
-325 -15 -311 -30 -494 -44 -547 -6 -23 -14 -28 -45 -30 l-38 -3 6 38 c16 108
26 426 20 691 -7 283 -17 369 -28 240 -9 -108 -27 -579 -22 -587 7 -11 -34
-375 -43 -384 -4 -4 -21 -9 -37 -10 -24 -2 -29 2 -26 18 16 132 23 359 15 542
-9 201 -13 236 -30 219 -4 -4 -11 -120 -15 -259 -7 -237 -30 -482 -49 -518 -9
-17 -71 -30 -89 -19 -7 4 -5 42 4 111 29 198 48 800 27 814 -11 6 -17 -38 -36
-300 -18 -231 -30 -350 -51 -490 -24 -166 -21 -158 -59 -152 -18 3 -38 0 -44
-6 -22 -22 -23 5 -2 88 21 86 42 241 61 460 13 152 13 495 1 495 -12 0 -15
-25 -41 -325 -23 -261 -52 -485 -76 -580 -8 -33 -19 -77 -23 -98 -5 -21 -13
-43 -19 -49 -11 -11 -92 -31 -99 -24 -2 2 10 23 26 47 60 86 91 296 91 615 0
136 -4 214 -10 214 -5 0 -10 -8 -10 -18 0 -60 -32 -390 -45 -457 -8 -44 -31
-138 -51 -210 -20 -71 -39 -146 -43 -165 -5 -31 -10 -35 -39 -38 -17 -2 -32
-1 -32 1 0 2 9 37 19 78 23 92 37 227 56 559 18 300 18 300 6 300 -17 0 -31
-89 -46 -291 -8 -112 -22 -242 -30 -289 -8 -47 -19 -119 -25 -160 -22 -148
-59 -230 -106 -230 -14 0 -15 7 -10 38 29 169 46 392 44 562 -2 69 -1 178 1
243 2 72 -1 117 -7 117 -5 0 -13 -7 -16 -16 -14 -36 -25 -201 -20 -293 4 -60
0 -143 -10 -221 -53 -430 -58 -450 -106 -450 -32 0 -32 -2 -5 175 24 152 40
393 37 535 -5 219 -23 188 -37 -65 -8 -131 -20 -229 -51 -405 -32 -187 -53
-268 -71 -274 -27 -11 -36 5 -29 51 3 25 13 115 21 201 8 87 19 173 25 192 15
51 26 410 12 410 -6 0 -13 -36 -16 -87 -10 -135 -21 -228 -44 -348 -12 -60
-26 -148 -33 -195 -25 -185 -49 -260 -86 -260 -16 0 -17 32 -3 80 9 32 47 303
70 505 13 105 18 415 8 415 -19 0 -28 -56 -37 -235 -12 -237 -77 -628 -117
-707 -8 -15 -14 -36 -14 -47 0 -21 -27 -41 -56 -41 -13 0 -15 6 -10 28 17 73
76 441 87 546 10 97 10 119 -1 126 -10 6 -12 30 -7 104 3 55 2 96 -4 96 -10 0
-15 -18 -29 -110 -13 -87 -13 -150 1 -150 8 0 10 -19 5 -62 -11 -106 -105
-561 -122 -586 -14 -21 -51 -42 -76 -42 -6 0 -8 13 -5 33 3 17 16 114 30 214
15 101 31 209 36 240 26 147 42 555 22 567 -13 8 -19 -36 -32 -229 -6 -93 -13
-173 -15 -176 -2 -4 -13 -76 -24 -160 -36 -265 -38 -282 -60 -384 -12 -55 -27
-106 -33 -114 -15 -18 -59 -33 -68 -24 -5 5 9 95 31 202 23 115 43 248 49 329
35 482 36 513 12 498 -10 -7 -22 -121 -26 -246 -2 -83 -36 -297 -75 -470 -10
-47 -24 -116 -29 -155 -11 -73 -36 -183 -42 -190 -2 -2 -16 -6 -31 -10 -22 -6
-26 -4 -23 12 13 64 64 390 80 513 14 106 44 550 39 565 -14 35 -24 -13 -39
-190 -17 -198 -48 -436 -70 -548 -39 -200 -77 -373 -83 -379 -4 -4 -19 -10
-34 -13 -36 -9 -36 -6 2 202 17 90 37 228 45 306 8 78 19 165 25 192 40 193
68 409 57 440 -4 10 -9 16 -11 14 -3 -2 -14 -76 -26 -164 -11 -88 -27 -182
-35 -208 -8 -27 -28 -126 -44 -220 -41 -229 -85 -436 -113 -527 -22 -68 -27
-75 -56 -84 -18 -5 -35 -6 -38 -3 -8 7 59 279 85 352 10 28 22 75 25 105 4 30
19 134 33 230 22 153 24 192 18 318 -5 95 -11 140 -17 134 -5 -5 -14 -81 -18
-168 -12 -210 -34 -338 -125 -709 -30 -121 -57 -237 -60 -257 -6 -31 -13 -39
-42 -49 -19 -6 -37 -8 -40 -5 -4 3 -1 25 5 49 68 256 104 437 146 722 14 94
30 193 35 222 16 84 25 263 14 263 -12 0 -20 -35 -28 -127 -25 -274 -127 -765
-216 -1039 -39 -122 -39 -122 -80 -138 -23 -9 -44 -15 -47 -12 -2 3 5 27 16
53 26 62 125 449 147 573 8 52 29 148 45 212 29 115 40 222 21 202 -5 -5 -37
-119 -71 -254 -141 -564 -201 -750 -263 -817 -24 -27 -52 -31 -43 -7 3 8 28
81 55 162 61 180 86 278 116 447 13 72 35 184 49 250 31 146 54 305 48 323 -9
25 -20 -3 -42 -108 -64 -307 -130 -554 -236 -885 -62 -194 -68 -205 -99 -205
-17 0 -25 5 -25 18 0 23 67 270 120 442 61 199 145 551 191 797 36 193 42 240
46 413 3 112 0 242 -6 304 -6 60 -9 112 -6 114 5 6 476 60 795 92 113 11 387
41 610 65 223 25 650 70 950 100 472 48 647 66 1072 113 42 4 87 4 99 0 15 -6
33 -4 53 6 27 12 121 24 536 66 128 13 138 12 150 -10z m-1969 -49 c-7 -12
-16 -21 -21 -21 -17 0 -19 17 -3 39 20 29 40 13 24 -18z m93 16 c12 -19 3 -31
-31 -42 -26 -7 -31 12 -12 46 12 23 27 21 43 -4z m98 -14 c29 -26 22 -43 -17
-43 -27 0 -35 4 -35 18 0 16 17 42 29 42 2 0 13 -7 23 -17z m-1855 -129 c8
-20 -13 -88 -32 -104 -13 -11 -207 -38 -445 -63 -49 -5 -53 -5 -36 8 46 35
428 171 489 174 10 1 20 -6 24 -15z m4585 -75 c12 -6 109 -15 217 -20 344 -16
441 -29 441 -58 0 -4 -39 -6 -87 -4 -106 4 -85 -11 30 -22 67 -6 84 -11 110
-35 18 -16 29 -31 26 -35 -4 -3 -51 5 -105 19 -147 37 -287 62 -507 91 -238
31 -314 34 -432 13 -161 -28 -205 -31 -205 -15 0 41 94 61 325 70 39 2 92 4
118 5 27 1 58 -3 69 -9z m-5152 -29 c0 -19 -36 -47 -48 -36 -5 5 36 56 45 56
2 0 3 -9 3 -20z m5276 -60 c214 -33 408 -71 419 -82 7 -7 1 -8 -20 -5 -51 10
-215 17 -623 28 -372 9 -469 18 -432 39 14 8 154 26 260 33 137 10 277 5 396
-13z m789 -26 c211 -32 614 -147 1125 -321 337 -115 807 -320 829 -362 13 -24
1 -34 -109 -95 -47 -26 -119 -68 -160 -93 -41 -25 -113 -67 -160 -93 -47 -26
-181 -102 -299 -170 -202 -116 -214 -122 -238 -109 -31 17 -203 199 -305 324
-195 238 -452 530 -630 718 -109 115 -198 213 -198 219 0 6 10 8 23 4 12 -4
67 -13 122 -22z m-1438 -45 c16 -6 129 -12 263 -15 517 -9 639 -14 735 -28
119 -19 157 -20 172 -5 14 14 147 -22 175 -48 11 -10 72 -79 136 -153 63 -74
154 -175 202 -225 48 -49 102 -108 121 -131 68 -81 276 -312 408 -452 73 -78
131 -145 128 -148 -3 -3 -57 17 -119 46 -328 152 -485 215 -866 351 -106 37
-213 79 -237 93 -25 13 -53 22 -63 19 -32 -8 -100 16 -136 48 -31 26 -36 28
-44 13 -8 -15 -17 -14 -103 9 -52 15 -152 36 -224 48 -171 28 -180 32 -180 89
0 40 -3 46 -30 59 -33 16 -235 28 -280 17 -47 -12 -17 -23 82 -31 165 -12 176
-15 184 -54 l7 -34 -72 7 c-84 8 -377 53 -383 60 -5 5 -65 225 -66 241 -1 20
145 235 159 235 2 0 15 -5 31 -11z m4080 -512 c-85 -128 -221 -329 -303 -447
-81 -118 -277 -408 -437 -645 -337 -500 -450 -661 -455 -647 -1 5 31 88 73
183 42 96 109 255 149 354 126 309 183 435 220 480 20 24 141 155 268 292 128
137 323 347 433 467 109 120 201 213 203 207 2 -7 -66 -117 -151 -244z m-4309
170 c15 -43 15 -100 0 -115 -10 -10 -16 -8 -30 10 -17 23 -18 22 -18 -31 0
-41 -6 -64 -27 -97 -16 -24 -31 -44 -35 -44 -4 0 -10 17 -13 38 -3 20 -10 50
-15 66 -5 16 -7 34 -3 40 17 31 117 166 123 166 3 0 11 -15 18 -33z m-93 -16
c-3 -6 -11 -11 -17 -11 -6 0 -6 6 2 15 14 17 26 13 15 -4z m4365 -20 c0 -14
-58 -80 -269 -306 -231 -247 -315 -338 -354 -387 -32 -40 -47 -47 -47 -23 0
22 129 311 151 340 11 13 23 43 27 66 l7 42 230 139 c220 132 255 149 255 129z
m-4057 -180 c4 -4 18 -56 31 -117 13 -60 40 -185 61 -278 20 -93 54 -225 76
-293 21 -68 39 -135 39 -149 0 -22 -4 -25 -32 -22 -31 3 -33 6 -66 103 -36
109 -176 651 -187 728 l-7 48 38 -7 c22 -3 42 -10 47 -13z m-93 -166 c46 -232
105 -479 135 -564 32 -90 30 -125 -5 -129 -14 -1 -36 4 -50 10 -22 12 -28 32
-71 243 -26 127 -59 271 -73 320 -42 151 -49 200 -32 234 20 39 47 64 56 54 5
-4 23 -80 40 -168z m-296 157 c3 -5 8 -39 12 -76 l7 -67 -39 -40 c-46 -47 -52
-40 -53 60 -1 48 4 72 20 97 20 33 42 43 53 26z m544 -3 c33 -11 31 -5 63
-176 27 -146 66 -294 125 -476 48 -145 62 -202 55 -211 -8 -10 -25 -11 -62 -5
-28 5 -52 10 -53 11 -1 2 -12 46 -24 98 -12 52 -30 124 -41 160 -11 36 -36
119 -56 185 -30 101 -105 391 -105 408 0 6 26 14 51 16 9 0 30 -4 47 -10z
m176 -19 c29 -11 23 9 106 -335 33 -137 80 -310 105 -384 25 -73 45 -138 45
-143 0 -12 -100 0 -117 14 -6 5 -15 28 -18 50 -4 23 -34 123 -67 222 -61 187
-148 516 -148 561 0 22 4 25 34 25 19 0 46 -4 60 -10z m259 -50 c98 -20 122
-35 132 -87 3 -19 26 -103 50 -187 23 -83 50 -187 60 -231 9 -44 23 -96 31
-115 20 -52 54 -181 54 -207 0 -20 -4 -23 -27 -18 -16 4 -37 8 -48 10 -16 3
-25 22 -42 90 -32 122 -142 472 -203 640 -19 54 -55 99 -71 90 -5 -4 66 -261
126 -455 12 -41 33 -120 45 -175 12 -55 26 -115 32 -134 8 -26 7 -35 -3 -42
-17 -11 -40 -11 -56 -1 -7 4 -40 95 -73 202 -34 106 -66 202 -71 212 -8 15
-92 318 -106 385 -3 13 -3 29 0 37 7 17 24 15 170 -14z m-787 -252 c18 -111
45 -252 58 -313 14 -60 26 -130 28 -155 3 -45 3 -45 -31 -48 -18 -2 -37 0 -42
5 -10 10 -25 83 -44 213 -8 52 -25 154 -39 225 -28 144 -31 196 -15 228 15 28
41 58 46 53 3 -2 20 -96 39 -208z m1057 196 c25 -8 48 -23 51 -32 3 -9 21 -82
40 -162 19 -80 55 -228 81 -329 25 -101 49 -206 52 -232 7 -56 -4 -65 -62 -55
-32 6 -34 10 -40 54 -12 92 -48 239 -93 377 -65 203 -111 357 -112 378 0 21
22 22 83 1z m-1369 -26 c3 -13 6 -48 6 -79 0 -49 -4 -61 -37 -103 -32 -41 -38
-45 -46 -30 -6 10 -12 51 -15 92 l-5 75 39 33 c47 40 50 40 58 12z m3986 -2
c0 -16 -165 -411 -202 -486 -37 -72 -65 -105 -377 -437 -53 -57 -99 -103 -104
-103 -10 0 15 48 153 295 64 116 152 275 195 355 154 288 159 295 260 353 69
40 75 42 75 23z m-2446 -20 c26 -11 36 -22 41 -48 11 -47 122 -405 141 -453
41 -101 84 -232 84 -257 0 -32 -8 -35 -69 -28 -42 5 -46 7 -49 35 -5 45 -42
179 -132 479 -44 149 -80 273 -80 278 0 12 27 10 64 -6z m-1424 -51 c-7 -9
-15 -13 -17 -11 -7 7 7 26 19 26 6 0 6 -6 -2 -15z m1649 -17 c36 -11 102 -36
147 -55 45 -18 87 -33 95 -33 8 0 39 -12 69 -26 30 -15 136 -57 235 -94 170
-64 455 -189 483 -212 14 -12 -50 -63 -195 -156 -40 -26 -113 -72 -161 -104
-91 -58 -278 -158 -299 -158 -14 0 -38 39 -89 140 -20 41 -74 134 -120 206
-45 72 -103 169 -128 215 -44 83 -126 269 -126 289 0 14 14 13 89 -12z m-1590
-173 c11 -77 22 -153 25 -170 8 -44 32 -174 41 -217 7 -38 7 -38 -27 -38 -59
0 -69 15 -79 121 -6 52 -21 154 -34 228 -14 74 -25 140 -25 147 0 19 62 86 71
77 4 -4 16 -71 28 -148z m3531 100 c0 -20 -508 -944 -602 -1095 -25 -40 -20
-56 -90 255 -30 136 -52 259 -53 301 -2 40 -6 77 -9 83 -11 17 2 31 42 48 35
15 319 184 557 332 116 72 155 91 155 76z m-3835 -42 c3 -21 8 -46 10 -55 1
-10 -9 -33 -23 -53 -15 -19 -34 -45 -43 -57 -22 -30 -29 -21 -36 46 -5 53 -4
58 33 106 21 27 41 50 46 50 4 0 10 -17 13 -37z m135 -1 c0 -5 -16 -31 -35
-58 -28 -39 -35 -44 -35 -27 0 12 14 38 31 58 32 36 39 41 39 27z m54 -252
c15 -91 29 -178 32 -193 l6 -28 -64 3 -63 3 -7 100 c-3 56 -11 124 -16 153
-10 56 -5 68 47 125 18 19 27 24 32 15 4 -7 19 -87 33 -178z m-178 62 c-22
-43 -66 -93 -77 -86 -19 11 -7 43 32 88 46 52 72 51 45 -2z m-158 -41 c3 -34
-3 -52 -24 -82 -15 -22 -32 -38 -38 -36 -6 2 -12 23 -14 46 -3 33 3 52 23 83
14 21 32 38 38 35 7 -2 13 -23 15 -46z m183 -132 c4 -57 5 -107 2 -111 -2 -5
-20 -8 -38 -8 -38 0 -49 13 -60 73 -6 32 -2 45 31 97 22 33 44 58 49 57 6 -2
13 -50 16 -108z m-307 -23 c8 -40 -6 -81 -29 -90 -9 -3 -30 -6 -47 -6 -22 0
-29 4 -25 15 9 21 80 115 88 115 4 0 10 -15 13 -34z m139 21 c7 -17 -24 -88
-47 -106 -19 -16 -22 -14 -31 19 -4 19 2 34 25 63 34 40 45 45 53 24z m2200
-168 c26 -47 47 -92 47 -99 0 -9 -10 -11 -37 -7 -46 8 -50 12 -68 78 -8 29
-24 86 -35 124 -11 39 -20 74 -20 79 0 15 65 -86 113 -175z m856 64 c-30 -31
-246 -200 -346 -270 -83 -59 -151 -114 -235 -190 -36 -32 -79 -60 -115 -73
-64 -23 -113 -64 -113 -92 0 -9 11 -25 25 -34 35 -23 22 -34 -38 -34 -36 0
-60 6 -77 20 -36 28 -43 25 -36 -16 6 -31 4 -36 -13 -41 -25 -6 -25 -6 -5 -44
8 -17 13 -33 10 -37 -9 -9 -47 30 -67 69 -22 44 -38 52 -79 37 -24 -8 -34 -7
-43 2 -9 9 -8 15 7 24 10 6 53 37 95 70 42 32 123 86 181 121 58 34 155 93
215 132 61 38 144 89 185 113 41 24 116 71 165 104 145 97 300 187 304 175 2
-6 -7 -22 -20 -36z m-3039 -3 c0 -5 -7 -10 -15 -10 -8 0 -15 5 -15 10 0 6 7
10 15 10 8 0 15 -4 15 -10z m3080 -25 c-7 -8 -17 -15 -22 -15 -6 0 -5 7 2 15
7 8 17 15 22 15 6 0 5 -7 -2 -15z m806 -127 c-25 -58 -70 -162 -99 -234 -95
-225 -275 -641 -298 -686 -27 -53 -20 -66 -94 192 l-56 196 50 74 c27 41 68
93 91 115 23 22 133 139 244 259 128 140 202 214 204 204 2 -9 -17 -63 -42
-120z m-4021 72 c8 -13 -34 -72 -48 -67 -20 6 -27 46 -11 62 18 17 50 20 59 5z
m235 -4 c0 -8 -4 -18 -10 -21 -18 -11 -10 -25 14 -25 27 0 60 -39 71 -83 7
-28 7 -28 -51 -31 -10 -1 -25 24 -45 72 -36 90 -36 102 -4 102 15 0 25 -6 25
-14z m812 -6 c195 -11 220 -15 253 -48 44 -44 114 -120 165 -182 30 -36 74
-86 98 -111 36 -39 41 -48 28 -58 -8 -6 -108 -32 -223 -57 -393 -85 -392 -85
-371 -39 9 20 8 28 -5 43 -10 11 -14 26 -10 40 7 29 -12 50 -65 73 -39 17 -43
22 -36 42 13 37 10 123 -5 140 -7 10 -26 17 -42 17 -16 0 -29 5 -29 11 0 8
-15 9 -47 4 -59 -8 -71 -18 -44 -37 18 -13 20 -21 14 -85 -6 -68 -7 -72 -42
-95 -31 -20 -36 -29 -38 -63 -1 -39 -37 -132 -66 -169 -14 -19 -16 -16 -31 36
-9 30 -22 61 -30 67 -8 7 -42 76 -77 154 -34 78 -82 181 -105 229 -24 48 -44
90 -44 92 0 3 8 6 18 8 30 7 539 -2 734 -12z m-1335 2 c8 -5 -16 -46 -78 -132
-96 -132 -135 -178 -144 -168 -3 3 -9 66 -12 140 -4 101 -3 137 6 143 7 4 54
10 104 15 51 4 97 8 102 8 6 1 15 -2 22 -6z m173 -2 c0 -8 -181 -237 -267
-339 -35 -40 -28 -5 10 53 19 28 66 102 106 164 41 62 81 117 90 122 21 12 61
13 61 0z m256 -1 c9 -15 -16 -30 -46 -27 -14 2 -26 10 -28 21 -3 13 4 17 32
17 19 0 38 -5 42 -11z m1364 -24 c41 -4 145 -15 230 -25 85 -11 214 -26 285
-34 72 -9 186 -26 254 -40 109 -21 128 -27 149 -52 l24 -28 -23 -20 c-30 -24
-247 -128 -259 -124 -5 2 -19 19 -32 38 -27 40 -58 49 -95 25 -20 -14 -27 -14
-33 -4 -6 10 -25 5 -82 -19 -98 -43 -195 -72 -239 -72 -33 0 -45 10 -146 118
-153 164 -215 239 -200 246 6 3 30 3 52 1 22 -2 74 -7 115 -10z m-2225 -6 c7
-11 24 -294 26 -445 1 -93 1 -94 -36 -144 -20 -27 -40 -50 -43 -50 -8 1 -238
348 -315 476 -52 86 -66 116 -67 139 -1 19 424 43 435 24z m755 -8 c0 -12 -20
-25 -27 -18 -7 7 6 27 18 27 5 0 9 -4 9 -9z m3233 -22 c21 -29 116 -404 117
-461 l0 -37 -57 -11 c-32 -6 -199 -43 -371 -82 -343 -78 -332 -78 -332 -8 0
31 16 51 183 219 232 235 419 412 431 408 6 -2 18 -15 29 -28z m-4485 -6 c12
-10 33 -40 48 -68 35 -66 179 -289 217 -338 19 -24 26 -42 20 -48 -6 -6 -69 9
-174 41 -90 28 -200 60 -243 71 -103 26 -396 115 -447 135 -45 18 -48 34 -23
107 12 37 22 48 47 56 40 13 388 54 508 60 15 0 36 -7 47 -16z m1132 -29 c0
-11 -41 -81 -92 -155 -50 -74 -141 -208 -202 -299 l-110 -165 -8 40 c-4 22 -7
64 -7 93 -1 47 3 57 37 95 21 23 56 65 78 92 272 336 303 368 304 299z m268
-3 c9 -15 46 -107 81 -202 35 -96 79 -209 98 -252 20 -43 33 -81 29 -84 -3 -3
-25 -7 -47 -7 -42 -1 -42 -1 -53 44 -16 67 -41 61 -41 -9 0 -55 0 -55 -35 -63
-19 -4 -41 -5 -48 -3 -7 3 -28 37 -47 77 l-34 73 34 3 c18 2 48 -3 67 -11 31
-13 37 -13 61 5 35 25 34 39 -2 60 -39 22 -64 95 -38 110 26 14 20 35 -12 41
-23 5 -32 14 -41 43 -11 33 -11 39 6 51 10 7 24 13 31 13 7 0 13 6 13 14 0 9
-16 17 -41 21 -35 6 -43 12 -56 42 -18 45 -11 63 27 63 23 0 35 -7 48 -29z
m-112 -27 c15 -39 15 -49 4 -67 -11 -18 -10 -23 13 -41 18 -15 30 -38 38 -76
7 -30 20 -67 30 -81 10 -14 19 -38 21 -54 3 -28 0 -30 -40 -36 -38 -5 -45 -3
-61 20 -30 42 -34 69 -17 97 16 23 16 25 -9 34 -15 6 -32 24 -40 45 -20 47
-19 55 8 52 14 -1 22 3 22 13 0 9 -11 16 -28 18 -29 4 -47 32 -47 76 0 17 8
26 33 34 51 16 54 15 73 -34z m-1981 -14 c3 -5 17 -10 31 -10 27 0 32 -26 13
-61 -8 -16 -13 -18 -25 -8 -7 6 -25 9 -38 7 -39 -8 -47 3 -34 45 11 36 39 50
53 27z m4885 -17 c-50 -65 -314 -323 -329 -323 -9 0 -22 -5 -28 -11 -7 -7 -13
-7 -17 -1 -15 25 98 139 288 289 98 77 120 89 86 46z m-9100 7 c219 -20 900
-170 900 -198 0 -34 -495 44 -1047 165 -14 3 -23 13 -23 24 0 22 13 23 170 9z
m4140 -15 c0 -34 -20 -40 -66 -19 l-39 16 30 14 c50 22 75 18 75 -11z m1980
-187 c34 -106 75 -222 91 -257 16 -35 26 -67 23 -72 -9 -15 -54 -10 -54 5 0 8
-12 23 -27 34 -25 18 -26 20 -10 43 21 30 22 73 1 93 -30 31 -111 17 -156 -26
-14 -13 -41 -35 -61 -51 -28 -21 -40 -41 -53 -85 -9 -31 -19 -60 -23 -64 -10
-11 -174 -37 -188 -30 -8 5 53 103 188 305 110 163 202 297 204 297 2 0 32
-87 65 -192z m-564 147 c3 -19 4 -73 3 -119 -3 -64 -8 -90 -21 -103 -10 -9
-20 -14 -23 -11 -10 10 -18 173 -11 221 6 37 11 47 26 47 14 0 21 -10 26 -35z
m-1597 11 c7 -8 28 -17 49 -21 49 -9 92 -32 92 -50 0 -7 -12 -47 -26 -87 -28
-80 -69 -128 -109 -128 -14 0 -25 -4 -25 -8 0 -14 23 -32 42 -32 22 0 23 -12
1 -68 -16 -43 -17 -44 -55 -39 -51 7 -58 -10 -19 -42 37 -31 38 -39 10 -75
-15 -19 -30 -26 -55 -26 -40 0 -47 -23 -11 -41 12 -6 23 -13 24 -14 4 -3 -36
-108 -44 -116 -5 -4 -32 -11 -61 -15 l-53 -7 7 44 c4 24 22 73 40 109 50 101
170 408 204 523 11 37 -6 35 -25 -4 -14 -27 -21 -30 -52 -27 -45 4 -54 -15
-19 -38 28 -18 32 -39 14 -79 -11 -26 -32 -33 -43 -15 -9 14 -35 13 -35 -2 0
-7 11 -23 25 -38 l24 -25 -36 -90 c-50 -126 -57 -135 -104 -135 -46 0 -49 -11
-13 -37 l26 -19 -31 -62 c-35 -70 -76 -112 -108 -112 -41 0 -30 58 40 201 47
98 66 127 77 122 8 -3 29 -7 45 -7 41 -1 39 26 -2 38 -18 5 -33 14 -33 20 0 6
31 83 68 171 52 123 72 160 87 163 47 7 51 13 28 32 -13 10 -23 23 -23 28 0
23 62 29 79 8z m2528 -41 c17 -50 11 -65 -25 -65 -35 0 -46 12 -60 62 -11 40
-3 48 47 45 19 -2 27 -11 38 -42z m-2670 -8 c-3 -23 -20 -76 -37 -117 -18 -41
-41 -97 -52 -125 -38 -95 -155 -332 -168 -340 -10 -6 -12 2 -7 38 6 40 3 50
-16 67 -32 30 -67 22 -92 -21 -19 -34 -102 -116 -109 -108 -2 2 -8 121 -14
264 -8 199 -8 263 1 271 14 14 131 44 277 74 58 11 121 24 140 29 19 5 46 9
59 10 22 1 23 -2 18 -42z m3121 -35 c3 -38 1 -43 -15 -40 -13 2 -19 14 -21 46
-3 38 -1 43 15 40 13 -2 19 -14 21 -46z m-2753 -6 c54 -23 46 -46 -15 -46 -51
0 -58 7 -44 44 8 20 15 20 59 2z m1525 -4 c0 -5 -19 -38 -42 -73 -31 -48 -43
-59 -46 -45 -2 10 13 42 33 72 34 50 55 67 55 46z m-1285 -74 c135 -45 235
-75 430 -127 83 -23 188 -52 234 -66 46 -14 98 -25 117 -25 28 0 39 -7 65 -42
17 -24 37 -55 45 -71 14 -26 13 -29 -29 -74 -39 -41 -50 -47 -103 -55 -305
-44 -544 -63 -559 -43 -5 7 -25 33 -42 59 -18 25 -41 46 -50 46 -40 0 -46 14
-28 66 9 27 21 54 27 61 14 18 2 43 -20 43 -13 0 -22 11 -29 33 -8 29 -12 32
-46 30 -38 -2 -89 -24 -120 -51 -15 -13 -17 -26 -11 -87 6 -70 6 -73 -21 -91
-51 -36 -62 -51 -69 -95 -4 -24 -10 -49 -14 -56 -4 -7 -55 -16 -117 -22 -61
-6 -125 -13 -142 -16 -33 -4 -33 -4 -33 41 0 31 18 92 59 197 33 84 74 194 92
246 l32 93 50 -5 c27 -4 51 -8 53 -10 8 -8 -29 -97 -40 -97 -7 0 -17 -5 -24
-12 -9 -9 -8 -15 3 -28 13 -15 13 -23 0 -68 -14 -46 -19 -52 -43 -52 -31 0
-75 -27 -67 -41 4 -5 22 -9 41 -9 32 0 35 -2 28 -22 -19 -63 -33 -78 -74 -78
-47 0 -54 -20 -15 -38 23 -11 25 -16 19 -47 -5 -28 -3 -35 10 -35 28 0 69 101
151 370 31 102 63 195 71 207 15 24 4 26 169 -29z m2124 -20 c16 -44 14 -52
-16 -65 -39 -19 -42 -17 -64 34 -21 50 -18 59 21 65 37 6 47 0 59 -34z m454
13 c53 -25 57 -44 10 -49 -27 -3 -33 -10 -52 -60 -30 -79 -47 -102 -75 -102
-23 0 -24 2 -18 65 3 45 1 65 -7 65 -6 0 -11 -5 -11 -11 0 -5 -4 -7 -10 -4 -6
3 -3 24 8 53 15 40 22 47 47 50 17 2 34 8 40 13 5 5 12 8 15 6 3 -2 27 -13 53
-26z m-5724 -21 c187 -38 633 -181 617 -197 -2 -2 -125 22 -273 56 -147 33
-349 76 -448 96 -99 21 -184 41 -189 45 -4 5 -5 14 -1 21 11 16 169 5 294 -21z
m1871 -199 c-3 -126 -8 -232 -12 -236 -4 -4 -69 16 -146 44 -77 28 -231 73
-343 101 -273 68 -279 70 -279 79 0 4 19 13 43 20 35 10 659 205 692 216 6 2
19 4 30 4 20 1 20 -4 15 -228z m2420 91 c0 -21 -46 -69 -56 -59 -8 7 37 77 49
77 4 0 7 -8 7 -18z m1032 -9 c15 -5 56 -99 46 -108 -2 -2 -23 -8 -46 -14 -49
-10 -47 -12 -61 64 -10 55 0 81 28 69 9 -3 24 -8 33 -11z m449 -22 c-12 -22
-41 -29 -41 -9 0 6 8 20 17 30 21 24 39 8 24 -21z m-3795 5 c12 -20 16 -54 16
-163 1 -157 -8 -283 -21 -296 -6 -6 -17 -7 -27 -3 -12 5 -15 14 -10 37 3 18 6
125 6 240 0 129 4 209 10 209 5 0 17 -11 26 -24z m3562 -33 c-5 -44 -28 -40
-28 5 0 21 3 42 7 46 11 11 25 -22 21 -51z m1841 4 c22 -46 25 -66 15 -117
-12 -56 -132 -160 -187 -160 -7 0 -22 6 -32 14 -18 13 -18 15 -2 39 9 15 17
36 17 47 0 27 52 80 78 80 31 0 45 25 37 66 -5 27 -2 41 11 55 26 29 40 23 63
-24z m-2555 -2 c-4 -8 -12 -15 -20 -15 -8 0 -14 7 -14 15 0 8 9 15 20 15 13 0
18 -5 14 -15z m-1694 -40 c0 -8 -4 -15 -10 -15 -5 0 -10 7 -10 15 0 8 5 15 10
15 6 0 10 -7 10 -15z m1623 -25 c3 -11 1 -23 -4 -26 -5 -3 -9 -20 -9 -38 0
-32 -2 -34 -46 -41 -25 -3 -48 -4 -51 -1 -9 9 18 65 47 96 33 35 55 38 63 10z
m-4374 -7 c0 -5 -4 -17 -9 -28 -8 -18 -9 -17 -9 8 -1 15 4 27 9 27 6 0 10 -3
9 -7z m664 -13 c17 -14 98 -37 249 -70 223 -50 408 -105 408 -122 0 -5 -8 -7
-17 -4 -42 12 -253 57 -448 96 -263 51 -322 67 -306 83 10 10 64 34 82 36 4 1
18 -8 32 -19z m5709 -47 l-4 -52 -66 2 c-37 1 -88 -2 -114 -6 -75 -13 -57 7
38 43 47 17 97 42 112 55 15 13 30 21 33 17 3 -4 4 -30 1 -59z m-6186 36 c53
-14 63 -29 40 -64 -9 -13 -16 -31 -16 -38 0 -22 -84 -107 -106 -107 -11 0 -30
9 -42 20 -19 18 -22 32 -22 95 0 40 3 80 6 89 7 19 73 21 140 5z m3729 -45 c8
-64 -4 -87 -44 -82 -28 3 -37 24 -27 62 6 26 43 76 56 76 4 0 11 -25 15 -56z
m2375 51 c0 -11 -45 -26 -150 -50 -62 -14 -118 -30 -125 -35 -22 -18 -170 -49
-335 -70 -90 -12 -171 -25 -180 -30 -18 -10 -241 -40 -294 -40 -48 0 -23 11
50 21 38 5 101 16 139 24 39 8 176 35 305 60 129 25 312 63 405 85 186 42 185
42 185 35z m-3507 -45 c-2 -44 -20 -61 -38 -37 -14 19 -11 40 8 65 17 21 32 7
30 -28z m1687 26 c0 -2 3 -12 6 -21 6 -14 1 -16 -27 -13 -46 4 -55 38 -10 38
17 0 31 -2 31 -4z m1992 -31 c24 -31 45 -31 98 -4 48 25 73 14 64 -29 -4 -20
1 -33 20 -51 l26 -25 -27 -28 c-25 -26 -26 -31 -16 -70 14 -52 9 -65 -28 -73
-37 -8 -49 0 -49 33 -1 38 -36 112 -54 112 -11 0 -13 -8 -9 -35 5 -33 4 -35
-21 -35 -21 0 -26 -5 -26 -24 0 -15 -7 -26 -19 -29 -15 -4 -21 -15 -23 -46 -2
-23 -7 -42 -13 -43 -5 -1 -25 17 -42 41 -25 32 -33 53 -33 83 0 40 14 59 78
111 16 12 21 24 16 41 -4 18 -1 25 16 29 19 5 21 10 15 36 -8 38 1 39 27 6z
m-2698 -19 c-6 -26 -18 -33 -28 -18 -6 10 23 56 31 49 2 -3 1 -16 -3 -31z
m-4456 -6 c42 -12 129 -35 192 -51 63 -17 138 -39 165 -49 28 -10 90 -25 140
-35 96 -18 122 -30 106 -49 -11 -13 -67 -10 -316 20 -104 12 -147 13 -167 5
-31 -12 -36 -32 -13 -51 17 -14 20 -40 6 -40 -26 0 -41 34 -41 95 0 60 -2 65
-35 94 -57 50 -80 50 -129 2 -23 -22 -48 -41 -56 -41 -8 0 -91 20 -185 44
l-170 44 120 2 c97 1 189 10 298 29 4 0 42 -8 85 -19z m1222 -19 c56 -17 73
-38 51 -65 -6 -7 -39 -21 -72 -30 -52 -15 -63 -22 -74 -50 l-14 -33 -102 18
c-55 10 -104 20 -107 23 -9 9 81 118 106 127 13 5 36 9 51 9 16 0 34 7 41 15
13 16 23 15 120 -14z m-1936 -5 c88 -13 192 -41 209 -56 13 -11 -44 -51 -67
-48 -15 2 -20 9 -18 26 4 26 -18 29 -78 11 -21 -7 -49 -9 -63 -5 -20 5 -23 11
-19 31 3 18 0 25 -12 25 -9 0 -16 -8 -16 -20 0 -24 -3 -24 -40 -5 -39 20 -40
75 -2 60 8 -3 56 -12 106 -19z m3256 -16 c0 -5 -8 -10 -17 -10 -15 0 -16 2 -3
10 19 12 20 12 20 0z m957 -42 c73 -50 52 -98 -43 -98 -24 0 -36 5 -40 18 -10
32 -21 47 -38 50 -12 3 -16 -4 -16 -32 0 -72 -26 -41 -44 51 0 4 14 18 33 30
43 29 85 23 148 -19z m921 19 c2 -11 -4 -18 -17 -18 -12 -1 -26 -2 -33 -3 -21
-2 -18 19 4 30 29 14 42 12 46 -9z m2382 14 c0 -13 -10 -16 -215 -55 -99 -19
-256 -50 -350 -70 -266 -54 -394 -69 -1435 -162 -41 -4 -82 -11 -90 -15 -20
-12 42 -8 737 46 524 41 592 49 1023 130 69 13 145 26 170 30 73 10 141 25
203 46 31 10 66 19 77 19 20 0 20 -1 -4 -49 -24 -47 -27 -49 -68 -48 -24 0
-65 -7 -93 -15 -31 -10 -58 -12 -72 -7 -14 5 -65 -1 -145 -17 -167 -34 -446
-73 -598 -84 -509 -35 -675 -51 -686 -65 -6 -8 -28 -17 -50 -20 -57 -8 -428
-33 -664 -45 -293 -15 -358 -30 -105 -25 279 6 623 33 1215 94 223 24 410 34
410 24 0 -12 -337 -63 -710 -109 -641 -78 -879 -102 -1143 -114 -130 -6 -243
-13 -250 -15 -58 -21 -1062 -58 -1907 -71 -433 -7 -874 4 -1095 26 -49 5 -247
19 -440 30 -412 23 -599 37 -675 50 -30 5 -116 14 -190 20 -74 6 -179 20 -233
31 -54 11 -140 24 -190 28 -101 10 -127 17 -127 35 0 18 49 86 63 86 7 0 116
-9 242 -20 535 -45 988 -74 1400 -90 154 -6 361 -15 460 -20 363 -19 1093 -13
1375 10 241 21 648 42 970 50 212 6 364 15 415 24 44 8 103 15 131 15 82 1
1366 165 1385 177 4 2 90 9 191 14 281 16 813 85 953 124 59 17 115 20 115 7z
m-5361 -12 c36 -6 84 -15 106 -21 22 -6 105 -21 185 -34 136 -22 234 -44 356
-79 61 -18 110 -53 95 -68 -5 -5 -97 -12 -208 -15 -153 -4 -225 -1 -318 12
-66 9 -138 19 -160 22 -34 5 -44 12 -66 48 -14 24 -29 59 -33 79 -4 20 -13 37
-20 37 -6 0 -21 7 -32 15 -18 14 -18 14 5 15 13 0 53 -5 90 -11z m-1820 -44
c36 -8 67 -18 70 -21 3 -2 -3 -12 -12 -22 -13 -12 -33 -17 -73 -16 -63 2 -69
6 -79 52 -6 30 -5 33 11 29 11 -3 48 -13 83 -22z m2448 -21 c-3 -3 -12 -4 -19
-1 -8 3 -5 6 6 6 11 1 17 -2 13 -5z m446 -28 c34 -8 43 -29 29 -61 -12 -26
-63 -45 -124 -45 -35 0 -38 2 -38 28 0 27 36 87 62 103 7 5 19 2 28 -5 8 -7
28 -16 43 -20z m-2712 -2 c10 -13 10 -17 -2 -25 -19 -12 -56 -11 -64 1 -9 15
13 40 35 40 10 0 23 -7 31 -16z m1518 -8 c6 -7 25 -16 41 -20 24 -4 30 -11 30
-31 0 -28 -19 -32 -67 -14 -34 13 -84 59 -77 71 8 13 60 9 73 -6z m-1374 -23
c67 -32 34 -55 -47 -32 -27 7 -38 15 -38 29 0 25 36 27 85 3z m1235 -3 c0 -5
-7 -10 -15 -10 -8 0 -15 5 -15 10 0 6 7 10 15 10 8 0 15 -4 15 -10z m-167 -31
c42 -6 77 -15 77 -20 0 -12 -85 -11 -178 1 -80 11 -96 16 -86 32 7 10 29 9
187 -13z m-810 -30 c-8 -8 -16 -8 -30 0 -16 9 -14 10 12 11 21 0 26 -3 18 -11z
m127 1 c19 -6 9 -8 -37 -9 -36 -1 -63 3 -63 9 0 12 64 12 100 0z m6953 -119
c51 -79 49 -110 -4 -38 -53 75 -84 78 -39 5 21 -35 27 -88 10 -88 -5 0 -20 15
-32 33 -12 19 -34 41 -49 50 -26 15 -30 14 -53 -4 -47 -37 -69 -85 -61 -134 4
-31 13 -48 27 -56 14 -8 17 -14 9 -22 -7 -7 -22 -3 -49 16 -38 25 -54 31 -79
28 -16 -1 -17 -33 -1 -49 17 -17 3 -25 -21 -12 -28 15 -41 5 -41 -31 0 -23 6
-32 27 -40 15 -5 36 -9 47 -7 17 3 21 9 19 41 -2 31 1 37 17 37 26 0 36 -41
21 -91 -12 -39 -12 -39 -64 -39 -32 0 -62 -6 -75 -16 -13 -9 -25 -14 -28 -11
-3 2 -10 35 -16 73 -10 65 -9 69 11 82 25 17 26 33 5 89 -22 57 -15 73 30 66
40 -6 43 -1 21 49 -12 31 -12 38 1 56 19 28 40 28 47 1 5 -18 10 -20 29 -14
13 5 46 7 75 6 44 -1 54 2 71 24 19 23 74 54 97 54 6 0 27 -26 48 -58z m-94
-94 c16 -20 26 -77 13 -77 -6 0 -14 5 -17 10 -11 18 -23 10 -30 -21 -9 -40
-31 -31 -28 13 4 73 34 108 62 75z m-7280 -736 c96 -17 176 -33 179 -36 10
-10 -95 -5 -209 10 -116 15 -202 36 -229 56 -22 15 51 7 259 -30z m496 -41
c-3 -5 -10 -10 -16 -10 -5 0 -9 5 -9 10 0 6 7 10 16 10 8 0 12 -4 9 -10z"/>
<path d="M7757 9683 c-9 -8 -9 -96 -1 -117 11 -30 24 -5 24 47 0 52 -10 83
-23 70z"/>
<path d="M5460 9386 c-14 -37 -34 -185 -27 -193 15 -14 28 16 42 98 8 46 15
92 15 102 0 25 -19 21 -30 -7z"/>
<path d="M5875 9356 c-8 -39 2 -79 16 -71 12 8 12 92 0 100 -6 3 -13 -10 -16
-29z"/>
<path d="M4880 9338 c-6 -24 -15 -56 -20 -72 -13 -37 -12 -46 0 -46 8 0 27 54
46 133 11 46 -14 31 -26 -15z"/>
<path d="M6095 9358 c-10 -29 -9 -91 1 -95 13 -4 24 28 24 75 0 31 -16 44 -25
20z"/>
<path d="M5755 9278 c-2 -7 -5 -34 -8 -60 -3 -34 -1 -48 8 -48 15 0 25 31 25
83 0 35 -16 51 -25 25z"/>
<path d="M7505 7299 c-10 -15 3 -25 16 -12 7 7 7 13 1 17 -6 3 -14 1 -17 -5z"/>
<path d="M7575 7140 c-7 -12 42 -36 53 -26 4 4 -2 14 -12 22 -23 17 -33 18
-41 4z"/>
<path d="M7640 6982 c0 -15 24 -32 47 -32 31 0 29 18 -3 30 -31 12 -44 13 -44
2z"/>
<path d="M7715 6810 c-10 -17 5 -30 33 -30 34 0 57 14 48 29 -9 14 -73 15 -81
1z"/>
<path d="M7823 6663 c-23 -9 -14 -33 11 -33 41 0 58 10 45 26 -11 14 -33 17
-56 7z"/>
<path d="M7913 6518 c-43 -9 -62 -38 -25 -38 34 0 93 22 89 33 -5 15 -16 16
-64 5z"/>
<path d="M7983 6390 c-31 -12 -29 -26 4 -34 29 -8 60 14 49 33 -8 13 -23 13
-53 1z"/>
<path d="M8085 6265 c-5 -2 -22 -6 -37 -9 -42 -9 -33 -26 13 -26 45 0 83 16
74 31 -6 9 -30 11 -50 4z"/>
<path d="M8102 6099 c-27 -10 -21 -29 9 -29 25 0 59 17 59 30 0 12 -37 12 -68
-1z"/>
<path d="M8240 5963 c-96 -29 -98 -29 -83 -44 7 -7 36 -4 97 10 93 22 126 36
126 51 0 16 -49 10 -140 -17z"/>
<path d="M8344 5839 c-95 -12 -150 -40 -110 -55 12 -5 192 39 203 49 8 9 -44
12 -93 6z"/>
<path d="M8435 5753 c-124 -28 -140 -34 -140 -54 0 -10 10 -13 30 -11 50 5
246 67 246 77 0 17 -21 15 -136 -12z"/>
<path d="M8610 5704 c-107 -23 -261 -76 -267 -91 -11 -29 19 -31 75 -6 31 13
108 38 170 53 63 16 117 31 119 34 8 8 -7 26 -20 25 -7 0 -41 -7 -77 -15z"/>
<path d="M5010 7240 c0 -13 5 -20 13 -17 6 2 12 10 12 17 0 7 -6 15 -12 18 -8
2 -13 -5 -13 -18z"/>
<path d="M2026 7262 c-23 -37 -59 -582 -39 -582 6 0 13 48 17 113 4 61 14 193
22 291 13 171 13 199 0 178z"/>
<path d="M2138 7210 c-8 -28 -23 -143 -39 -299 -24 -235 -30 -919 -8 -905 5 3
9 56 9 117 0 172 18 578 36 817 15 212 16 325 2 270z"/>
<path d="M2255 6958 c-2 -7 -9 -59 -14 -116 -22 -210 -8 -233 20 -35 10 71 18
136 19 146 0 20 -19 23 -25 5z"/>
<path d="M2407 6863 c-25 -40 -105 -515 -127 -753 -16 -169 -24 -577 -14 -715
7 -111 9 -116 15 -65 4 30 8 129 8 220 1 176 15 408 31 530 5 41 14 131 20
200 6 69 27 225 46 348 33 210 38 263 21 235z"/>
<path d="M2475 6579 c-3 -57 -26 -286 -50 -509 -48 -441 -61 -608 -71 -909 -5
-138 -4 -200 4 -205 14 -8 20 51 27 269 8 235 35 537 85 947 24 198 37 468 23
493 -8 14 -12 -7 -18 -86z"/>
<path d="M2220 6633 c0 -10 -3 -36 -6 -58 -3 -27 -2 -35 4 -25 15 23 24 100
12 100 -5 0 -10 -8 -10 -17z"/>
<path d="M2187 6430 c-3 -19 -11 -126 -18 -238 -9 -147 -9 -206 -1 -214 15
-15 19 17 32 247 7 119 8 199 2 215 -9 24 -9 24 -15 -10z"/>
<path d="M2610 6379 c0 -2 -11 -94 -25 -204 -50 -385 -67 -613 -46 -589 9 10
82 652 83 733 0 29 -3 55 -6 58 -3 4 -6 4 -6 2z"/>
<path d="M2522 5520 c-15 -43 -27 -638 -14 -670 10 -23 11 -22 12 15 0 22 5
184 10 359 5 176 8 321 6 323 -2 2 -9 -10 -14 -27z"/>
<path d="M2670 5410 c0 -5 5 -10 10 -10 6 0 10 5 10 10 0 6 -4 10 -10 10 -5 0
-10 -4 -10 -10z"/>
<path d="M2658 5220 c-4 -14 -8 -41 -8 -60 1 -29 2 -32 11 -17 6 9 9 36 7 60
-3 36 -4 38 -10 17z"/>
<path d="M951 6998 c-33 -190 -42 -347 -47 -778 -6 -529 9 -583 25 -89 10 301
26 551 51 807 6 56 8 107 5 112 -14 22 -24 7 -34 -52z"/>
<path d="M846 6981 c-9 -70 -36 -607 -36 -721 1 -57 4 -89 9 -80 8 13 16 165
37 693 7 157 2 201 -10 108z"/>
<path d="M1075 6777 c-4 -10 -5 -21 -1 -24 10 -10 18 4 13 24 -4 17 -4 17 -12
0z"/>
<path d="M1066 6653 c-3 -27 -11 -129 -16 -228 -6 -99 -15 -232 -20 -295 -12
-144 -13 -547 -1 -535 4 6 18 213 30 460 12 248 25 494 28 548 4 65 3 97 -5
97 -5 0 -13 -21 -16 -47z"/>
<path d="M1198 6570 c-11 -52 -26 -235 -48 -589 -20 -326 -28 -941 -11 -941
11 0 21 153 21 344 0 89 5 229 10 311 29 485 41 721 38 810 -2 74 -5 91 -10
65z"/>
<path d="M1306 6138 c-4 -46 -13 -137 -21 -203 -30 -256 -40 -654 -17 -630 3
3 11 106 18 228 7 122 19 294 27 382 28 296 28 305 13 305 -10 0 -15 -22 -20
-82z"/>
<path d="M1432 5730 c0 -14 2 -19 5 -12 2 6 2 18 0 25 -3 6 -5 1 -5 -13z"/>
<path d="M1416 5633 c-11 -47 -17 -390 -7 -368 5 11 10 61 11 110 1 50 5 131
9 180 8 88 0 134 -13 78z"/>
<path d="M1521 5333 c2 -128 16 -153 18 -30 1 65 -3 107 -9 107 -6 0 -10 -32
-9 -77z"/>
<path d="M1402 5205 c0 -16 2 -22 5 -12 2 9 2 23 0 30 -3 6 -5 -1 -5 -18z"/>
<path d="M6950 5726 c0 -8 5 -18 10 -21 6 -3 10 3 10 14 0 12 -4 21 -10 21 -5
0 -10 -6 -10 -14z"/>
<path d="M4305 5598 c-2 -7 -13 -53 -25 -103 -24 -105 -75 -264 -101 -317 -36
-71 -16 -115 30 -69 25 25 64 149 89 282 29 151 36 219 22 219 -6 0 -13 -6
-15 -12z"/>
<path d="M8385 5039 c-67 -9 -130 -27 -121 -36 2 -2 89 -4 192 -5 197 0 231 8
160 37 -39 16 -120 18 -231 4z"/>
<path d="M7350 4140 c0 -5 7 -10 16 -10 8 0 12 5 9 10 -3 6 -10 10 -16 10 -5
0 -9 -4 -9 -10z"/>
<path d="M3436 3977 c-9 -33 -7 -87 3 -87 13 0 21 26 21 65 0 40 -15 54 -24
22z"/>
<path d="M3357 3938 c-4 -15 -4 -34 0 -44 6 -15 7 -15 14 4 5 12 5 32 0 44 -8
21 -8 21 -14 -4z"/>
<path d="M3479 3895 c-13 -20 -22 -145 -10 -145 6 0 13 10 16 23 8 30 2 135
-6 122z"/>
<path d="M3345 3811 c-3 -5 -1 -12 5 -16 5 -3 10 1 10 9 0 18 -6 21 -15 7z"/>
<path d="M3466 3711 c-4 -7 -5 -15 -2 -18 9 -9 19 4 14 18 -4 11 -6 11 -12 0z"/>
<path d="M7986 4581 c-11 -18 24 -32 85 -34 41 -1 63 2 66 10 5 13 -13 19 -94
28 -28 3 -54 1 -57 -4z"/>
<path d="M8000 4471 c0 -11 43 -26 127 -43 49 -9 66 -9 75 0 19 19 -2 31 -68
42 -75 12 -134 13 -134 1z"/>
<path d="M7989 4360 c-19 -12 19 -26 128 -45 111 -19 153 -19 153 -1 0 19 -15
23 -117 36 -49 6 -102 12 -119 14 -17 2 -37 0 -45 -4z"/>
<path d="M7905 3090 c-3 -5 -1 -10 4 -10 6 0 11 5 11 10 0 6 -2 10 -4 10 -3 0
-8 -4 -11 -10z"/>
<path d="M8290 2790 c-12 -8 -10 -10 8 -10 13 0 20 4 17 10 -7 12 -6 12 -25 0z"/>
<path d="M4970 2940 c-11 -7 -12 -12 -3 -21 15 -15 48 -7 48 11 0 18 -24 24
-45 10z"/>
<path d="M4963 2859 c-45 -13 -44 -39 1 -39 35 0 63 21 51 40 -7 12 -9 11 -52
-1z"/>
<path d="M9727 1679 c-133 -62 -252 -98 -401 -121 -49 -7 -91 -18 -93 -25 -6
-17 22 -19 117 -10 161 15 256 42 389 110 118 60 180 108 135 106 -11 0 -76
-28 -147 -60z"/>
<path d="M10102 1709 c12 -36 224 -53 645 -52 338 1 419 6 408 22 -2 4 -143 8
-313 9 -281 1 -530 12 -686 29 -47 5 -58 3 -54 -8z"/>
<path d="M740 1611 c-31 -4 -45 -11 -45 -21 0 -12 14 -14 80 -11 107 5 165 14
168 26 2 11 -134 16 -203 6z"/>
<path d="M950 1455 c-17 -10 -60 -14 -127 -15 -81 0 -103 -3 -103 -14 0 -21
23 -26 113 -26 91 0 152 13 160 34 10 24 -15 36 -43 21z"/>
<path d="M10085 1460 c-3 -5 7 -12 22 -16 15 -3 35 -8 43 -10 29 -7 337 -43
470 -55 129 -11 401 -7 459 8 55 14 -17 22 -209 22 -190 1 -364 14 -620 46
-146 18 -157 18 -165 5z"/>
<path d="M875 1330 c-3 -5 -3 -20 1 -34 l6 -24 -380 -3 c-301 -3 -382 -7 -395
-18 -9 -7 -14 -17 -11 -22 6 -11 208 -11 311 -1 40 4 141 3 225 -3 190 -14
272 -8 314 23 l30 23 85 -22 c83 -21 85 -21 179 -4 127 23 130 23 130 46 0 17
-8 19 -79 19 -57 0 -82 -4 -91 -15 -14 -17 -57 -13 -195 16 -49 11 -98 22
-107 24 -10 2 -20 -1 -23 -5z"/>
<path d="M9529 1283 c-5 -16 -11 -33 -14 -39 -2 -7 -25 -20 -52 -29 -37 -14
-87 -19 -223 -22 -207 -4 -220 -6 -220 -34 0 -21 3 -21 218 -17 237 4 258 8
324 67 20 17 41 31 48 31 6 0 91 -25 188 -56 384 -121 864 -222 886 -186 8 13
-12 19 -94 27 -170 18 -580 125 -877 231 -84 30 -157 54 -163 54 -6 0 -15 -12
-21 -27z"/>
<path d="M1490 1210 c-25 -9 -150 -20 -445 -41 -159 -12 -642 -5 -730 10 -57
10 -91 0 -59 -17 52 -28 187 -34 582 -27 523 9 495 9 592 -7 74 -11 89 -17
116 -45 22 -22 45 -35 73 -39 23 -4 39 -9 36 -13 -4 -3 -86 -15 -183 -26 -167
-19 -177 -21 -180 -42 -4 -28 51 -66 133 -90 53 -15 112 -17 495 -18 386 -1
444 -3 518 -19 60 -14 86 -16 94 -8 54 54 -181 86 -562 76 -153 -4 -280 -2
-363 5 -132 12 -185 24 -157 35 40 15 118 26 221 31 216 11 239 14 239 36 0
25 -26 35 -120 49 -114 17 -211 41 -204 51 3 5 59 9 124 9 92 0 122 3 134 15
8 8 32 15 52 15 72 0 20 21 -102 40 -150 24 -272 32 -304 20z m275 -50 c21 -7
-3 -8 -85 -4 -63 3 -119 10 -125 16 -12 13 164 3 210 -12z"/>
<path d="M3940 1190 c-14 -4 -86 -9 -160 -9 -137 -1 -180 -10 -150 -32 24 -17
307 -6 353 14 20 9 37 21 37 26 0 13 -43 13 -80 1z"/>
<path d="M3337 1153 c-4 -3 -7 -14 -7 -24 0 -33 -40 -43 -200 -49 -152 -5
-155 -5 -158 -28 -5 -32 45 -50 186 -68 137 -17 262 -18 329 -4 58 13 178 80
178 101 0 11 -17 13 -95 10 l-95 -3 -52 36 c-52 35 -73 43 -86 29z m124 -104
c27 -14 14 -29 -26 -29 -32 0 -45 13 -45 46 0 14 24 8 71 -17z m-151 -23 c0
-3 -4 -8 -10 -11 -5 -3 -10 -1 -10 4 0 6 5 11 10 11 6 0 10 -2 10 -4z"/>
<path d="M2893 1110 c-10 -38 -63 -45 -328 -45 -182 0 -292 6 -406 19 -168 21
-196 19 -180 -13 18 -32 74 -45 124 -29 29 10 57 12 92 6 365 -58 698 -48 735
22 12 22 1 60 -17 60 -8 0 -17 -9 -20 -20z"/>
<path d="M4312 1097 c-8 -9 -10 -29 -6 -54 6 -38 4 -40 -38 -68 -29 -19 -60
-30 -95 -33 -39 -3 -52 -9 -56 -22 -6 -22 -34 -31 -217 -68 l-135 -27 -475 0
c-262 -1 -481 -4 -488 -9 -21 -13 -13 -36 16 -47 15 -6 65 -17 112 -24 47 -7
108 -18 135 -24 128 -27 649 -74 1025 -92 320 -15 666 -3 772 26 22 5 35 1 67
-25 22 -18 59 -36 83 -41 24 -4 158 -9 298 -10 l255 -1 -75 -19 c-227 -56
-617 -140 -672 -145 -126 -10 -148 -15 -148 -30 0 -20 41 -34 99 -34 50 0 351
66 456 100 119 38 540 131 753 165 96 16 115 27 89 52 -16 16 -20 16 -67 -1
-28 -10 -62 -16 -76 -13 -14 2 -55 -2 -92 -10 -53 -11 -144 -14 -443 -11
l-376 3 -37 33 c-57 50 -79 55 -144 36 -62 -18 -131 -12 -171 13 -15 10 -65
19 -138 24 -141 11 -413 69 -413 89 0 4 20 16 44 25 56 22 125 16 236 -18 100
-31 313 -72 458 -87 107 -12 138 -7 107 16 -13 9 -35 12 -75 7 -63 -6 -129 4
-320 48 -109 26 -240 63 -262 76 -4 2 10 21 31 42 22 22 42 49 46 61 9 27 19
25 165 -24 187 -62 565 -134 587 -112 5 4 -3 16 -16 27 -26 21 -76 25 -87 8
-8 -14 -49 -9 -204 24 -127 27 -347 94 -356 108 -7 12 -15 13 168 -25 366 -77
504 -90 580 -55 26 11 44 37 34 47 -3 2 -35 -1 -72 -8 -101 -19 -211 -8 -519
55 -154 32 -292 60 -306 62 -15 3 -30 -1 -37 -10z m-232 -292 c21 -25 233 -78
382 -95 71 -8 147 -34 135 -47 -8 -8 -377 -4 -602 7 -303 15 -778 70 -791 92
-3 4 82 8 188 7 144 -1 218 -6 293 -20 167 -31 497 -69 484 -56 -5 6 -373 67
-401 67 -59 0 200 58 263 59 21 1 42 -5 49 -14z"/>
<path d="M6820 1039 c-130 -47 -199 -54 -500 -53 -245 1 -297 4 -374 21 -82
18 -89 18 -109 3 -12 -10 -17 -22 -12 -29 33 -54 477 -150 770 -167 95 -5 129
-11 165 -29 89 -45 320 -105 403 -105 68 0 30 19 -84 41 -94 18 -146 30 -263
60 -21 6 -36 12 -34 14 2 3 54 11 115 19 60 8 144 25 186 37 l75 22 44 -35
c81 -66 160 -96 328 -123 235 -38 601 -38 638 -1 14 13 13 15 -9 20 -13 3
-136 7 -274 9 -267 5 -353 16 -498 63 -85 28 -134 62 -139 97 -5 33 -65 33
-189 1 -85 -22 -132 -28 -257 -32 -154 -4 -361 9 -482 30 -79 14 -77 15 140
27 97 6 216 18 265 26 88 16 201 60 225 90 11 13 7 15 -31 14 -24 0 -69 -9
-99 -20z"/>
<path d="M9255 1020 c-8 -13 -8 -13 210 -60 105 -22 233 -52 285 -65 95 -25
233 -55 251 -55 5 0 9 4 9 9 0 15 -273 86 -553 146 -186 39 -193 39 -202 25z"/>
<path d="M7938 989 c-17 -13 -28 -30 -28 -45 0 -19 -5 -24 -24 -24 -13 0 -29
-7 -36 -15 -17 -21 -132 -20 -192 2 -50 18 -65 14 -54 -12 17 -45 146 -68 257
-44 47 10 58 9 118 -14 75 -29 183 -58 190 -52 2 3 2 6 0 8 -2 2 -50 34 -106
71 -97 63 -126 96 -85 96 10 0 23 -5 29 -11 7 -7 38 -20 70 -31 32 -11 65 -26
73 -33 8 -7 34 -24 57 -37 24 -13 79 -45 124 -71 76 -45 106 -54 81 -25 -6 7
-55 37 -110 67 -55 30 -111 62 -123 72 -24 19 -24 19 34 19 72 0 86 -7 167
-85 36 -34 83 -73 105 -87 22 -14 47 -33 54 -42 8 -10 28 -24 44 -32 16 -9 27
-17 24 -20 -2 -2 -57 7 -122 21 -82 18 -121 23 -129 15 -5 -5 -8 -10 -5 -10
19 0 416 -103 423 -110 12 -12 -94 -23 -156 -15 -29 3 -138 18 -241 32 -104
14 -191 22 -195 19 -14 -15 20 -25 128 -41 63 -8 129 -19 145 -22 l30 -7 -40
-8 c-22 -5 -205 -11 -408 -15 -230 -3 -370 -10 -374 -16 -12 -20 28 -34 127
-46 121 -13 280 -14 335 -1 22 5 119 14 215 20 170 10 547 50 673 70 100 16
219 49 238 66 32 29 13 46 -45 39 -80 -10 -605 98 -685 140 -33 17 -25 20 107
33 110 11 152 28 152 63 0 24 -10 23 -110 -5 -30 -9 -79 -16 -109 -16 -62 0
-181 20 -181 31 0 3 60 10 133 14 157 9 220 22 225 48 4 17 -2 18 -90 10 -178
-16 -577 11 -622 43 -28 19 -56 17 -88 -7z m860 -354 c78 -26 142 -51 142 -56
0 -13 -26 -11 -128 11 -77 16 -100 26 -137 57 -46 38 -55 49 -32 39 6 -2 76
-26 155 -51z m212 -15 c30 -6 61 -14 69 -19 25 -16 -26 -23 -56 -8 -15 8 -47
18 -70 22 -24 4 -46 11 -49 17 -4 6 4 8 22 5 16 -4 54 -11 84 -17z"/>
<path d="M4396 991 c-24 -39 79 -89 267 -131 189 -41 197 -43 197 -33 0 5 -73
30 -163 55 -161 46 -232 73 -274 103 -12 10 -24 12 -27 6z"/>
<path d="M5745 970 c-33 -36 -169 -66 -355 -79 -91 -6 -95 -7 -98 -30 l-4 -24
149 6 c164 8 279 27 327 55 25 15 31 25 31 52 0 42 -22 51 -50 20z"/>
<path d="M9180 954 c-37 -13 -88 -24 -117 -24 -55 0 -67 -12 -32 -30 15 -8 39
-8 91 0 76 11 113 27 142 59 19 21 19 21 0 20 -10 -1 -48 -12 -84 -25z"/>
<path d="M550 901 c-42 -28 49 -50 200 -49 110 0 144 7 148 31 3 15 -10 17
-136 17 -77 0 -152 2 -168 5 -16 3 -36 1 -44 -4z"/>
<path d="M5176 855 c-45 -18 -87 -26 -180 -31 l-121 -8 65 -13 c36 -7 95 -15
132 -19 60 -6 73 -4 123 20 44 22 55 32 55 52 0 29 -1 29 -74 -1z"/>
<path d="M7375 871 c-10 -18 28 -29 143 -41 158 -18 164 2 10 34 -87 18 -144
20 -153 7z"/>
<path d="M5410 812 c0 -12 18 -17 165 -38 169 -25 222 -28 209 -15 -27 29
-374 78 -374 53z"/>
<path d="M1260 760 c0 -18 42 -32 78 -25 47 9 57 15 41 26 -19 12 -119 11
-119 -1z"/>
<path d="M1885 730 c-218 -45 -362 -68 -465 -75 -86 -6 -430 14 -548 31 -39 6
-44 5 -40 -12 4 -24 29 -28 303 -49 247 -20 380 -16 520 14 50 11 144 31 210
45 160 35 227 55 220 66 -9 15 -47 11 -200 -20z"/>
<path d="M5810 751 c0 -12 29 -23 41 -15 5 3 7 10 4 15 -8 12 -45 12 -45 0z"/>
<path d="M9768 738 c-32 -6 -58 -14 -58 -19 0 -19 44 -31 94 -24 56 7 77 20
69 41 -6 16 -22 16 -105 2z"/>
<path d="M8262 698 c3 -7 22 -14 44 -16 37 -2 38 -1 20 13 -24 18 -69 20 -64
3z"/>
<path d="M6600 635 c-102 -7 -187 -13 -190 -14 -3 -1 2 -6 10 -11 20 -13 254
-13 360 0 99 12 120 18 120 31 0 11 -52 10 -300 -6z"/>
<path d="M8030 612 c0 -10 19 -15 98 -26 27 -4 39 10 15 18 -46 13 -113 18
-113 8z"/>
<path d="M2719 565 c-67 -46 -141 -59 -361 -59 -117 -1 -188 -5 -189 -11 -4
-25 59 -38 201 -43 200 -6 332 15 390 64 l30 26 48 -17 c27 -10 91 -19 154
-22 96 -5 111 -3 152 17 52 25 64 56 19 47 -132 -25 -156 -27 -215 -18 -34 5
-87 18 -116 30 -29 12 -56 21 -60 20 -4 -1 -28 -16 -53 -34z"/>
<path d="M4243 493 c-10 -26 11 -47 63 -65 102 -36 253 -15 254 34 0 4 -46 7
-102 6 -84 -1 -113 2 -156 19 -47 19 -54 20 -59 6z"/>
<path d="M6140 446 c-19 -7 -82 -34 -140 -59 -58 -25 -124 -49 -148 -53 -24
-4 -119 -1 -210 6 -92 7 -174 11 -182 8 -51 -17 165 -57 315 -59 114 -2 175
15 307 82 89 45 132 49 283 24 50 -8 118 -15 153 -15 57 0 62 -2 62 -21 0 -20
4 -21 53 -15 30 3 73 13 97 21 56 20 104 19 290 -5 167 -22 237 -25 258 -11
18 11 -7 21 -51 21 -18 0 -130 16 -251 37 l-219 36 -94 -18 c-99 -18 -155 -16
-283 10 -109 22 -201 27 -240 11z m545 -51 c-16 -8 -41 -14 -55 -14 -19 0 -16
3 15 14 53 17 78 17 40 0z"/>
<path d="M8922 348 c4 -12 100 -37 146 -38 36 0 21 23 -24 37 -54 16 -127 17
-122 1z"/>
<path d="M2010 330 c-82 -23 -160 -24 -207 -5 -44 19 -54 12 -25 -18 21 -20
32 -22 120 -21 101 1 189 22 212 50 10 11 8 14 -11 13 -13 -1 -53 -10 -89 -19z"/>
<path d="M8395 283 c-74 -31 -188 -42 -467 -42 -197 -1 -239 -9 -160 -30 21
-6 141 -12 268 -13 252 -3 339 7 399 47 31 22 36 22 72 10 23 -9 81 -14 147
-15 60 0 154 -7 210 -16 183 -29 446 -8 446 37 0 8 -16 10 -57 5 -32 -4 -120
-9 -196 -13 -130 -5 -138 -4 -143 13 -5 18 -18 19 -218 19 -147 0 -217 4 -227
12 -11 9 -27 6 -74 -14z"/>
<path d="M3475 263 c-148 -76 -306 -113 -480 -113 -197 0 -496 -13 -483 -21
11 -8 398 -15 563 -11 160 4 335 45 430 102 28 16 69 39 93 50 23 12 42 23 42
25 0 3 -21 5 -47 5 -35 -1 -68 -11 -118 -37z"/>
<path d="M7025 278 c-169 -10 -184 -13 -167 -30 17 -17 190 -22 311 -9 101 11
141 23 141 41 0 11 -71 11 -285 -2z"/>
<path d="M3712 268 c2 -7 26 -24 53 -38 46 -23 63 -25 213 -29 113 -2 162 0
162 8 0 7 -22 11 -57 11 -100 0 -241 19 -300 40 -67 23 -76 24 -71 8z"/>
<path d="M5910 210 c0 -16 38 -22 161 -27 126 -6 190 1 173 16 -11 11 -334 21
-334 11z"/>
<path d="M8235 53 c-86 -13 -166 -13 -390 3 -70 5 -78 4 -62 -9 55 -45 408
-59 536 -21 72 21 93 45 39 43 -18 -1 -73 -8 -123 -16z"/>
</g>
</svg>
