<svg version="1.0" xmlns="http://www.w3.org/2000/svg" width="50" height="50" viewBox="0 0 640 1280"><path d="M302.3 1.5c-14.8 2.7-27.5 7.8-40 16.1-40.6 27-56.7 79.3-38.2 124.8 9.3 23 29.5 44.1 52.2 54.6 26.9 12.5 60.4 12.4 87.2-.4 52.6-25.2 74.3-87.3 48.5-139.1-20.1-40.6-65.9-64-109.7-56zM217.5 226.5c-25.7 4.8-47.7 20.9-59.5 43.6-4.1 8-6.3 15-39 128.4C97.6 472.7 79.3 536.1 66 582c-25.8 89-27 93.5-27 102 0 14.5 6.1 27.4 16.3 34.4 7.7 5.3 13 6.9 22.7 7 7.7.1 9.2-.2 15.2-3.2 7.8-3.8 15.5-11.7 19.7-20.1 1.6-3.1 11.5-33.1 22-66.6 10.6-33.6 28-88.9 38.8-123 10.7-34.1 20.1-63 20.9-64.3.8-1.2 2.1-2.2 2.9-2.2 4 0 4.2 1.8 6.4 79l2.1 74.5-42.5 318.7C140.1 1093.5 121 1240 121 1243.7c.1 11.9 5.9 22.6 16.2 29.6 9.6 6.5 12.6 6.9 49.5 6.5l32.8-.3 6-2.8c7.9-3.7 15.6-11.4 19-18.9 2.1-4.6 3.2-10.1 5-24.6 1.3-10.3 9.2-72.7 17.5-138.7 8.3-66 18.2-144.8 22-175 21.8-172.5 30-238.4 30-240 0-1 .2-1.6.5-1.3.6.5.8 2.4 18.5 143.3 7.7 61.6 17 134.9 20.5 163 3.5 28 12.5 99.4 20 158.6 7.4 59.2 14.1 109.5 14.9 111.7 3.4 9.4 10.9 17.6 20.5 22.1l5.6 2.6h71l6.7-3.3c11.1-5.4 18.7-15.6 20.9-27.9 1-5.3-2.7-34-41.9-328.3l-43-322.5.9-27c.5-14.9 1.5-48.3 2.3-74.4 1.6-50.6 1.7-51.2 6.5-49.6 2.4.7-1.4-10.8 47.1 143.5 18.3 58 34.7 108.4 36.4 112 4 8.4 12.6 17.2 20.3 20.8 5 2.3 7 2.7 14.3 2.6 10.3-.1 17.8-2.7 25.3-8.8 9.5-7.7 15.7-23.9 14.2-37.1-.4-3.3-6.8-26.9-14.2-52.5-26.8-92.7-41.4-143.5-56.3-195-38.4-132.9-44-152-46.4-157.4-8.6-19.3-26.8-36.5-46.7-44-15-5.6-14.9-5.6-117.8-5.5-73.2.1-96.2.4-101.6 1.4z"/></svg>