<svg version="1.0" xmlns="http://www.w3.org/2000/svg" width="50" height="50" viewBox="0 0 1187 1280"><path d="M255 .6c-1.4.2-6.5.9-11.5 1.5-4.9.6-14.8 2.6-22 4.4C130.6 29.6 53.4 118.7 19 240.1 10.7 269.3 5.7 297 1.8 335c-1.9 18.7-1.6 75.4.6 95.5 10 94.7 40 173.2 89.7 235 40.4 50.3 90.6 81.8 146.9 92.2 13.2 2.4 48.6 2.4 66 0 52.7-7.3 104.5-36.3 177.2-98.9 19.6-16.9 34.2-30.3 78.1-71.7 21.4-20.1 39.5-37 40.3-37.4.8-.5-6.3 9.6-15.9 22.5-9.5 12.8-23.2 31.2-30.4 40.8-7.1 9.6-32 44-55.3 76.5-147.3 205.2-233.4 322.6-345.3 470.6-17.1 22.6-22.9 32.5-28.1 48.1-6.4 19.6-7.9 40.1-3.7 51 2.6 6.7 7.3 11.2 13.3 12.9 8.6 2.4 27.7-3.5 55.3-17.1 58.5-28.8 111.1-80.6 176.7-174 5.2-7.5 17.7-25.7 27.8-40.5 10.1-14.9 26.5-38.9 36.4-53.5 54.1-79.6 84.9-118.5 124.7-157.5 24.5-24 44-39.8 68.1-55.1 13.9-8.8 42.8-24.1 42.8-22.6 0 .6-2 8.8-4.4 18.4-11.4 44.1-16 81.9-16 129.8 0 48.2 4.7 86.5 15.9 129.5 15.5 59.4 39.1 108.8 72.9 152.5 11.3 14.7 38.6 41.7 52.6 52.2 31.7 23.8 62 37.1 98.5 43.5 13.8 2.4 46.1 2.4 60 0 48.8-8.4 91-31.6 129.5-71.3 56.5-58.2 93.9-141.8 106.5-237.9 3.3-25.9 4-36.9 3.9-69.5-.1-42.5-2.3-65.7-9.9-103.5-25.9-128.1-99-228.8-190.8-262.9-11.5-4.3-24.4-7.8-37.7-10.3-13.2-2.4-48.6-2.4-66 0-52.7 7.3-104.5 36.3-177.2 98.9-19.6 16.9-34.2 30.3-78.1 71.7-21.4 20.1-39.5 37-40.3 37.4-.8.5 6.3-9.6 15.9-22.5 9.5-12.8 23.2-31.2 30.4-40.8 7.1-9.6 32-44.1 55.3-76.5 147.3-205.2 233.4-322.6 345.3-470.6 17.1-22.6 22.9-32.5 28.1-48.1 6.4-19.6 7.9-40.1 3.7-51-2.6-6.7-7.3-11.2-13.3-12.9-8.6-2.4-27.7 3.5-55.3 17.1-58.5 28.8-111.1 80.6-176.7 174-5.2 7.5-17.7 25.7-27.8 40.5-10.1 14.9-26.5 38.9-36.4 53.5-54.1 79.6-84.9 118.5-124.7 157.5-24.5 24-44 39.8-68.1 55.1-13.9 8.8-42.8 24.1-42.8 22.6 0-.6 2-8.8 4.4-18.4 11.4-44.1 16-81.9 16-129.8 0-48.2-4.7-86.5-15.9-129.5C509 191.1 485.4 141.7 451.6 98 440.3 83.3 413 56.3 399 45.8c-31.6-23.7-62.5-37.3-98-43.3-9-1.5-40.6-2.9-46-1.9zm39 120.3c15.8 5.3 28.8 14 43.1 28.8 48.7 50.4 77.3 154.8 70.9 259.3-4.3 70.6-22.9 134.1-51.9 177.5-25.1 37.6-53.7 56.5-85.6 56.5-31.6 0-60.9-19.3-85.5-56.3-68.2-102.4-70.6-297.9-5-405.7 17-28 40.2-49.9 61.5-58.1 12.4-4.8 18.6-5.9 31.5-5.5 9.7.3 13 .8 21 3.5zM934.6 639c17.6 4.4 36.9 16.9 51.7 33.7 56.9 64 82.3 194 61.1 312.3-11.6 64.9-36 118.1-68.6 149.6-20.9 20.1-42 29.2-65.8 28.1-22.5-1-42.8-11.4-63.1-32.4-48.7-50.4-77.3-154.8-70.9-259.3 6.8-110.2 48-199.9 104.2-226.5 15.9-7.6 35-9.6 51.4-5.5z"/></svg>